<svg xmlns="http://www.w3.org/2000/svg" xmlns:xlink="http://www.w3.org/1999/xlink" width="106" height="98" viewBox="0 0 106 98">
  <defs>
    <filter id="Rectangle_2129" x="0" y="0" width="106" height="98" filterUnits="userSpaceOnUse">
      <feOffset dy="3" input="SourceAlpha"/>
      <feGaussianBlur stdDeviation="3" result="blur"/>
      <feFlood flood-opacity="0.161"/>
      <feComposite operator="in" in2="blur"/>
      <feComposite in="SourceGraphic"/>
    </filter>
  </defs>
  <g id="Telco_image_woman" data-name="Telco image woman" transform="translate(-143.611 -40.299)">
    <g transform="matrix(1, 0, 0, 1, 143.61, 40.3)" filter="url(#Rectangle_2129)">
      <rect id="Rectangle_2129-2" data-name="Rectangle 2129" width="88" height="80" transform="translate(9 6)" fill="#e6e6e6"/>
    </g>
    <ellipse id="Ellipse_43" data-name="Ellipse 43" cx="20.739" cy="17.892" rx="20.739" ry="17.892" transform="translate(165.952 65.022)" fill="#2f2e41"/>
    <ellipse id="Ellipse_44" data-name="Ellipse 44" cx="10.91" cy="8.867" rx="10.91" ry="8.867" transform="translate(193.394 92.351)" fill="#2f2e41"/>
    <path id="Path_1033" data-name="Path 1033" d="M399.534,188.971l5.845,12.35-14.806,5.067-1.3-2.4-4.545-8.372Z" transform="translate(-202.409 -99.644)" fill="#9f616a"/>
    <ellipse id="Ellipse_45" data-name="Ellipse 45" cx="13.053" cy="10.609" rx="13.053" ry="10.609" transform="translate(172.662 76.131)" fill="#9f616a"/>
    <path id="Path_1034" data-name="Path 1034" d="M561.085,353.882c8.2-4.449,10.657-5.513,20.061-3.794l.564-11.15-24.3,4.143Z" transform="translate(-385.971 -268.346)" fill="#2f2e41"/>
    <path id="Path_1035" data-name="Path 1035" d="M612.189,409.263l-.36.034a.2.2,0,0,0-.03-.029c-1.428-1.161-8.245-3.272-13.328-4.736h-.006c-3.228-.932-5.755-1.6-5.755-1.6l-6.145-5.135c-1.548,1.414-4.819,2.507-7.927,3.277q-3.57.878-7.249,1.4h-.006l-1.272,3.3s-14.42,8.871-15.584,9.818h-.006v.01a.443.443,0,0,0-.108.371V416a35.288,35.288,0,0,0-1.116,8.608H616.09v-2.994C616.09,417.5,612.189,409.263,612.189,409.263Z" transform="translate(-386.01 -298.312)" fill="#575a89"/>
  </g>
</svg>
