<svg xmlns="http://www.w3.org/2000/svg" width="396" height="296.643" viewBox="0 0 396 296.643">
  <g id="Telco_image_2" data-name="Telco image 2" transform="translate(0 0)">
    <path id="Path_991" data-name="Path 991" d="M165.039,121.5a3.572,3.572,0,0,0-3.568,3.568V414.574a3.572,3.572,0,0,0,3.568,3.568H553.9a3.572,3.572,0,0,0,3.568-3.568V125.067A3.572,3.572,0,0,0,553.9,121.5Z" transform="translate(-161.472 -121.499)" fill="#e6e6e6"/>
    <path id="Path_992" data-name="Path 992" d="M186.756,146.784V420.595H559.924V146.784Z" transform="translate(-175.34 -135.368)" fill="#fff"/>
    <path id="Path_993" data-name="Path 993" d="M791.795,179.575a.781.781,0,0,0-.78.78v63.282a.781.781,0,0,0,.78.78h85a.781.781,0,0,0,.78-.78V180.355a.781.781,0,0,0-.78-.78Z" transform="translate(-506.77 -153.354)" fill="#e6e6e6"/>
    <path id="Path_994" data-name="Path 994" d="M796.542,185.1v59.851H878.11V185.1Z" transform="translate(-509.801 -156.385)" fill="#fff"/>
    <path id="Path_995" data-name="Path 995" d="M791.795,377.034a.781.781,0,0,0-.78.78V441.1a.781.781,0,0,0,.78.78h85a.781.781,0,0,0,.78-.78V377.814a.781.781,0,0,0-.78-.78Z" transform="translate(-506.77 -261.658)" fill="#e6e6e6"/>
    <path id="Path_996" data-name="Path 996" d="M796.542,382.56v59.851H878.11V382.56Z" transform="translate(-509.801 -264.689)" fill="#fff"/>
    <path id="Path_997" data-name="Path 997" d="M791.795,574.492a.781.781,0,0,0-.78.78v63.281a.781.781,0,0,0,.78.78h85a.781.781,0,0,0,.78-.78V575.272a.781.781,0,0,0-.78-.78Z" transform="translate(-506.77 -369.961)" fill="#e6e6e6"/>
    <path id="Path_998" data-name="Path 998" d="M796.542,580.019v59.85H878.11v-59.85Z" transform="translate(-509.801 -372.993)" fill="#fff"/>
    <path id="Path_999" data-name="Path 999" d="M878.543,242.33,862.29,230.96h-.005v0a27.925,27.925,0,0,1-1.138-5.342,10.512,10.512,0,0,0,3.114-5.2,1.913,1.913,0,0,1,.188.128c1.424,1.139,4.129-10.963-.427-13.241,0,0-3.417-7.4-9.966-5.695s-10.251,4.271-10.536,6.834a36.561,36.561,0,0,0,.142,6.407s.395-2.907,2.466-3.934a10.509,10.509,0,0,0,2.642,16.028c-.494,1.7-1.155,3.9-1.709,5.512h0l-4.966,2.47-10.819,6.833a33.715,33.715,0,0,0-5.7,11.674q-.165.739-.346,1.479h57.714C881.023,249.1,878.543,242.33,878.543,242.33Z" transform="translate(-525.539 -165.301)" fill="#e6e6e6"/>
    <path id="Path_1000" data-name="Path 1000" d="M873.557,642.506a20.494,20.494,0,0,1,3.514-1.794l-12.094-14.359-7.992-2.045a7.376,7.376,0,0,1-3.152-3.487l4.279-.042,1.631-9.235a5.816,5.816,0,0,0-1.631-6.98c.4-2.486-.729-4.316-3.718-5.349-2.974-2.58-7.368-3.2-10.006.933a4.139,4.139,0,0,0-4.363,3.708c-2.423,2.816.268,13.153,1.065,17.091l4.253-.042a6.779,6.779,0,0,1-2.035,3.807l-.058-.058-8.5,4.159-12.094,13.981a20.349,20.349,0,0,1,3.425,1.731l-1.248,4.746h8.653l2.3-3.346h.115c0-.058.005-.115.005-.173l1.615-2.349c.037,1.9-.016,3.855-.147,5.868H864.29c-.042-1.673-.052-3.335-.052-4.987l3.01,4.369c.226-.33.467-.64.708-.954l.593,1.573h6.891l-1.652-6.283a1.471,1.471,0,0,0-.231-.482Z" transform="translate(-524.124 -382.396)" fill="#e6e6e6"/>
    <path id="Path_1001" data-name="Path 1001" d="M871.364,435.123l-11.428-4.673c-.273-1.08-.5-2.1-.65-2.995a10.1,10.1,0,0,0,4.783-6.236l1.206-1.3a6.505,6.505,0,0,0,1.783-5.066,6.8,6.8,0,0,0-2.5-4.51c.467-2.953-.871-5.124-4.416-6.351-3.524-3.057-8.742-3.8-11.868,1.107a4.915,4.915,0,0,0-5.182,4.4c-2.57,2.989.079,8.952,1.343,13.52a1.779,1.779,0,0,0,1.505,1.28,10.151,10.151,0,0,0,3.236,3.047,13.9,13.9,0,0,1-.461,3.912l.01-.4L840.2,434.7l-.005-.1-.823.477-1.306.587c.01.052.021.1.031.152l-.121.068A9.094,9.094,0,0,0,834,440.6l-4.379,12.817h39.207a30.342,30.342,0,0,1,1.469-3.912l.01-.142,3.482,4.054h10.636Z" transform="translate(-527.946 -275.112)" fill="#e6e6e6"/>
    <circle id="Ellipse_7" data-name="Ellipse 7" cx="22.957" cy="22.957" r="22.957" transform="translate(126.457 220.382)" fill="#e6e6e6"/>
    <circle id="Ellipse_8" data-name="Ellipse 8" cx="17.6" cy="17.6" r="17.6" transform="translate(131.814 225.739)" fill="#fff"/>
    <path id="Path_1002" data-name="Path 1002" d="M489.54,658.379a.8.8,0,0,1-.567-.235l-17.636-17.636a.8.8,0,0,1,1.133-1.133l17.636,17.636a.8.8,0,0,1-.567,1.368Z" transform="translate(-331.309 -405.428)" fill="#6c63ff"/>
    <path id="Path_1003" data-name="Path 1003" d="M488.142,663.883l-2.595-2.595a.1.1,0,0,0-.17.085,3.212,3.212,0,0,0,2.68,2.68.1.1,0,0,0,.085-.17Z" transform="translate(-339.131 -417.552)" fill="#6c63ff"/>
    <path id="Path_1004" data-name="Path 1004" d="M493.242,653.579l2.6,2.6a.1.1,0,0,0,.17-.085,3.213,3.213,0,0,0-2.683-2.683.1.1,0,0,0-.086.17Z" transform="translate(-343.429 -413.246)" fill="#6c63ff"/>
    <path id="Path_1005" data-name="Path 1005" d="M499.607,651.559a1.613,1.613,0,0,0-.005-1.742,16.981,16.981,0,0,0-4.974-5.037,12.6,12.6,0,0,0-6.812-2.108,11.351,11.351,0,0,0-3.6.591.2.2,0,0,0-.078.332l2.367,2.367a.2.2,0,0,0,.191.053,4.81,4.81,0,0,1,5.812,5.812.2.2,0,0,0,.053.191l3.4,3.407a.2.2,0,0,0,.271.012A17.227,17.227,0,0,0,499.607,651.559Z" transform="translate(-338.42 -407.358)" fill="#6c63ff"/>
    <path id="Path_1006" data-name="Path 1006" d="M477.782,659.487a4.81,4.81,0,0,1-4.675-5.944.2.2,0,0,0-.053-.191L469.706,650a.2.2,0,0,0-.271-.012,20.034,20.034,0,0,0-3.391,3.794,1.6,1.6,0,0,0-.032,1.781,16.735,16.735,0,0,0,4.924,5.043,12.415,12.415,0,0,0,6.83,2.086,11.932,11.932,0,0,0,3.64-.579.2.2,0,0,0,.081-.333l-2.378-2.378a.2.2,0,0,0-.191-.053A4.812,4.812,0,0,1,477.782,659.487Z" transform="translate(-328.37 -411.346)" fill="#6c63ff"/>
    <circle id="Ellipse_9" data-name="Ellipse 9" cx="22.957" cy="22.957" r="22.957" transform="translate(39.358 220.382)" fill="#e6e6e6"/>
    <circle id="Ellipse_10" data-name="Ellipse 10" cx="17.6" cy="17.6" r="17.6" transform="translate(44.714 225.739)" fill="#fff"/>
    <path id="Path_1007" data-name="Path 1007" d="M292.615,658.04a9.441,9.441,0,0,1-4.409-1.5,28.666,28.666,0,0,1-6.925-5.18,26.279,26.279,0,0,1-5.2-6.923c-1.846-3.357-1.531-5.117-1.179-5.869a4.684,4.684,0,0,1,1.836-1.97,8.833,8.833,0,0,1,1.435-.762l.138-.061a1.341,1.341,0,0,1,1.1-.1,3.221,3.221,0,0,1,1.045.8,17.371,17.371,0,0,1,2.613,3.88,3.865,3.865,0,0,1,.513,1.589,2.511,2.511,0,0,1-.639,1.494c-.066.09-.131.175-.194.258-.381.5-.465.646-.41.9a9.505,9.505,0,0,0,2.314,3.433,9.11,9.11,0,0,0,3.393,2.258c.27.058.417-.03.934-.424.074-.057.15-.115.23-.174a2.524,2.524,0,0,1,1.516-.678h0a3.63,3.63,0,0,1,1.6.56,19.137,19.137,0,0,1,3.865,2.594,3.221,3.221,0,0,1,.8,1.043,1.352,1.352,0,0,1-.1,1.1c-.019.042-.039.087-.061.138a8.841,8.841,0,0,1-.766,1.432,4.685,4.685,0,0,1-1.973,1.833A3.378,3.378,0,0,1,292.615,658.04Z" transform="translate(-223.54 -403.478)" fill="#6c63ff"/>
    <circle id="Ellipse_11" data-name="Ellipse 11" cx="22.957" cy="22.957" r="22.957" transform="translate(214.232 220.382)" fill="#e6e6e6"/>
    <circle id="Ellipse_12" data-name="Ellipse 12" cx="17.6" cy="17.6" r="17.6" transform="translate(219.589 225.739)" fill="#fff"/>
    <path id="Path_1008" data-name="Path 1008" d="M685.133,681.578H678.72a.8.8,0,0,1,0-1.6h6.413a.8.8,0,1,1,0,1.6Z" transform="translate(-444.738 -427.818)" fill="#6c63ff"/>
    <path id="Path_1009" data-name="Path 1009" d="M678.031,662.962a7.223,7.223,0,0,1-7.215-7.215v-1.6a.8.8,0,0,1,1.6,0v1.6a5.612,5.612,0,1,0,11.223,0v-1.6a.8.8,0,0,1,1.6,0v1.6A7.223,7.223,0,0,1,678.031,662.962Z" transform="translate(-440.842 -413.21)" fill="#6c63ff"/>
    <path id="Path_1010" data-name="Path 1010" d="M685.822,676.709a.8.8,0,0,1-.8-.8V671.9a.8.8,0,0,1,1.6,0v4.008A.8.8,0,0,1,685.822,676.709Z" transform="translate(-448.633 -422.948)" fill="#6c63ff"/>
    <path id="Path_1011" data-name="Path 1011" d="M681.927,650.99a3.95,3.95,0,0,1-2.833-1.208,4.053,4.053,0,0,1-1.175-2.851v-5.562a3.993,3.993,0,0,1,3.977-4.008h.031a3.965,3.965,0,0,1,4.008,4.008v5.561a4.038,4.038,0,0,1-4.008,4.058Z" transform="translate(-444.738 -404.445)" fill="#6c63ff"/>
    <path id="Path_1012" data-name="Path 1012" d="M230.327,179.853a2.1,2.1,0,0,0-2.1,2.1V352a2.1,2.1,0,0,0,2.1,2.1h228.41a2.1,2.1,0,0,0,2.1-2.1V181.948a2.1,2.1,0,0,0-2.1-2.1Z" transform="translate(-198.089 -153.506)" fill="#e6e6e6"/>
    <path id="Path_1013" data-name="Path 1013" d="M243.084,194.7V355.533H462.273V194.7Z" transform="translate(-206.236 -161.652)" fill="#fff"/>
    <path id="Path_1014" data-name="Path 1014" d="M412.422,398.972l.395-1.546-3.426-14.194-.334-1.393L408.8,380.8l.4-.135,20.243-6.745.259,3.746,1.468,21.309Z" transform="translate(-224.225 -205.09)" fill="#ffb9b9"/>
    <path id="Path_1015" data-name="Path 1015" d="M212.115,383.233l-3.426,14.194.395,1.546H190.33l1.468-21.309.259-3.746L212.7,380.8Z" transform="translate(-104.394 -205.09)" fill="#ffb9b9"/>
    <path id="Path_1016" data-name="Path 1016" d="M483.572,357.952l-32.687,3.441c3.434-8.839,2.8-18.982,0-29.82H474.4a82.912,82.912,0,0,0,9.175,26.379Z" transform="translate(-320.212 -236.723)" fill="#ffb9b9"/>
    <circle id="Ellipse_13" data-name="Ellipse 13" cx="17.777" cy="17.777" r="17.777" transform="translate(124.938 73.059)" fill="#ffb9b9"/>
    <path id="Path_1017" data-name="Path 1017" d="M478.439,388.157c-3.753,16.586-6.841,32.354-8.774,47.461-.053.394-.1.785-.149,1.176-.064.512-.128,1.023-.185,1.535q-.949,7.916-1.432,15.6H396.353c.075-4.83-.085-9.769-.444-14.777a255.777,255.777,0,0,0-9.8-52.141l.036-.014,31.277-10.8.227-.078c9.016,4.162,17.993,4.353,26.9-1.962.028-.018.053-.039.082-.057l29.155,12.129.011,0Z" transform="translate(-284.684 -260.046)" fill="#6c63ff"/>
    <path id="Path_1018" data-name="Path 1018" d="M594.4,444.314l-35.554,9.749,8.6-53.9,5.487,1.829a12.719,12.719,0,0,1,8.29,8.874Z" transform="translate(-379.426 -274.341)" fill="#6c63ff"/>
    <path id="Path_1019" data-name="Path 1019" d="M334.037,444.313l35.554,9.749-8.6-53.905-5.487,1.829a12.719,12.719,0,0,0-8.29,8.875Z" transform="translate(-256.122 -274.34)" fill="#6c63ff"/>
    <path id="Path_1020" data-name="Path 1020" d="M453.177,256.053h0a18.794,18.794,0,0,0-8.586,2.528c-.6.35-.324,1.613-.88,2.025-.7.519-2.221.2-2.842.811a18.835,18.835,0,0,0-5.6,15.175l.988,9.819,2.33-2.548a24.285,24.285,0,0,1,16.2-7.951q.4-.027.794-.042l-1.792-3.137,3.115,3.115a30.328,30.328,0,0,1,4.244.345l-2.383-4.171,4.573,4.573h0a12.228,12.228,0,0,1,8.544,6.969l.508,1.126.569-9.368a18.882,18.882,0,0,0-19.776-19.271Z" transform="translate(-311.605 -195.289)" fill="#2f2e41"/>
    <ellipse id="Ellipse_14" data-name="Ellipse 14" cx="1.422" cy="3.376" rx="1.422" ry="3.376" transform="translate(123.699 87.04)" fill="#ffb9b9"/>
    <ellipse id="Ellipse_15" data-name="Ellipse 15" cx="1.422" cy="3.376" rx="1.422" ry="3.376" transform="translate(159.237 85.974)" fill="#ffb9b9"/>
  </g>
</svg>
