<svg xmlns="http://www.w3.org/2000/svg" width="88" height="80" viewBox="0 0 88 80">
  <g id="Telco_image_woman" data-name="Telco image woman" transform="translate(-251.006 -134.626)">
    <rect id="Rectangle_2133" data-name="Rectangle 2133" width="88" height="80" transform="translate(251.006 134.626)" fill="#e6e6e6"/>
    <path id="Path_1048" data-name="Path 1048" d="M858.078,636.685l2.1-8.346,1.953-.672.012,0a3.536,3.536,0,0,1,2.3,3.56c0,.558-.1,2.564-.275,5.453Z" transform="translate(-538.91 -422.059)" fill="#575a89"/>
    <ellipse id="Ellipse_48" data-name="Ellipse 48" cx="17.05" cy="13.871" rx="17.05" ry="13.871" transform="translate(281.861 158.482)" fill="#ffb8b8"/>
    <path id="Path_1049" data-name="Path 1049" d="M633.21,387.44l-1.421,23.7-22.023-10.4,2.841-13.293Z" transform="translate(-323.53 -207.743)" fill="#ffb8b8"/>
    <path id="Path_1050" data-name="Path 1050" d="M639,420.89l-1.445,10.078H626l-12.548-19.614-3.538-5.522-1.7-.9,1.965-.363,1.549.911,17.328,10.213,2.779-6.787.073-.174.7-1.708Z" transform="translate(-323.138 -216.342)" fill="#6c63ff"/>
    <path id="Path_1051" data-name="Path 1051" d="M800.222,524.881s2.131-8.669,14.208-6.935l-1.421.578s11.367-1.156,9.946,4.046c0,0,9.236,4.623,7.1,9.825a50.038,50.038,0,0,0-2.842,9.247l-2.131-1.734s-2.131-11.559-14.919-10.4c-9.591.867-13.5,4.551-14.5,7.206a21.079,21.079,0,0,1-1.755,3.632l-.8.142S788.855,527.771,800.222,524.881Z" transform="translate(-511.699 -365.905)" fill="#2f2e41"/>
    <path id="Path_1052" data-name="Path 1052" d="M817.622,608,817.61,608l-8.511-6.842v-4.621l-6.572-4.481-.1,2.724-.679,18.518-10.928-13.006-7.366-8.764-1.324-1.568.322-1.469-4.08,4-14.767,9.585-1.266.822a36.807,36.807,0,0,0-4.005,4.043c-.4.513-2.2,4.6-4.558,10.078h65.749c.161-2.888.259-4.895.259-5.453A3.512,3.512,0,0,0,817.622,608Z" transform="translate(-494.252 -402.388)" fill="#2f2e41"/>
  </g>
</svg>
