<svg id="Telco_image_4" data-name="Telco image 4" xmlns="http://www.w3.org/2000/svg" width="457.605" height="339.908" viewBox="0 0 457.605 339.908">
  <path id="Path_1127" data-name="Path 1127" d="M433.272,95.638C381.336,23.364,271.621-5.953,163.719,25.623c-57.044,16.693-112.045,50.139-139.3,114.9C-24.308,256.3,78,293.272,144.892,305.056a361.766,361.766,0,0,1,90.653,28.3c50.087,23.446,138.743,44.221,205.594-53.441C489.6,209.131,467.87,143.779,433.272,95.638Z" transform="translate(-11.697 -13.011)" fill="#f2f2f2"/>
  <path id="Path_1128" data-name="Path 1128" d="M173.769,247.433a13.373,13.373,0,0,0-.874-3.346,1.515,1.515,0,0,0-.77-.948,1.587,1.587,0,0,0-.764-.009l-3.923.6a1.5,1.5,0,0,0-.9.348c-.511.537-.008,1.4-.023,2.144a2.015,2.015,0,0,1-1.562,1.734,5.9,5.9,0,0,1-2.481-.031l-5.486-.852a9.045,9.045,0,0,0,4.15-2.769c.722-.855,1.106-2.452.063-2.857a2.561,2.561,0,0,0-.953-.076c-2.485.019-4.441-2.056-6.768-2.93a7.483,7.483,0,0,0-8.422,2.511l2.922.141a1.3,1.3,0,0,1,.778.208c.64.526-.156,1.537-.066,2.361.117,1.07,1.539,1.3,2.61,1.407s2.431.979,1.915,1.924c-5.385,1.855-10.865-3.626-16.521-2.951a33.567,33.567,0,0,0-4.181,1.087c-8.537,2.16-17.363-3.6-26.084-2.383a33.123,33.123,0,0,0-5.694,1.5,7.676,7.676,0,0,0-3.287,1.715,2.635,2.635,0,0,0-.374,3.395,19.106,19.106,0,0,1-6.7-.636,3.751,3.751,0,0,1,1.929,3.306,39.726,39.726,0,0,0-10.177,3.1,17.14,17.14,0,0,0,2.106,2.806l-4.451,2.86A2.54,2.54,0,0,1,81.2,264.5c1.559-.694,2.526-2.488,4.193-2.852a5.65,5.65,0,0,1,3.24.628,5.062,5.062,0,0,0,3.248.512c1.073-.315,1.864-1.706,1.182-2.592a55.507,55.507,0,0,1,14.1-2.2,1.768,1.768,0,0,1,1.068.2c.622.431.458,1.363.425,2.118s.556,1.749,1.231,1.408c-.795.689-.115,1.986.647,2.711s1.681,1.725,1.215,2.667c-.122.246-.328.443-.446.691-.346.733.2,1.587.851,2.074a7.258,7.258,0,0,1,1.892,1.5c.45.674.246,1.853-.559,1.947l-2.288-2.9a5.956,5.956,0,0,0-1.545,2.929,6.145,6.145,0,0,1,.76,8.406,21,21,0,0,1-3.8,2.911c-1.288.951-2.48,2.305-2.477,3.907.006,2.766-.22,5.337.816,7.9a121.717,121.717,0,0,0,6.608,13.786c.654,1.169,1.5,2.451,2.823,2.652q-2.51-6.112-4.52-12.413a2.846,2.846,0,0,1,2.392.78,4.959,4.959,0,0,1,.464,2.092,6.479,6.479,0,0,0,.826,1.942l7.992,14.236a5.891,5.891,0,0,0,2.689,2.925,15.208,15.208,0,0,1,2.491.688c.584.345.977.957,1.573,1.282,1.684.918,4.025-.843,5.6.254a15.756,15.756,0,0,1,1.151,1.171c1.453,1.258,3.837.417,5.514,1.355a6.516,6.516,0,0,1,2.218,2.911c1.444,2.747,3.782,5.437,6.877,5.656a19.17,19.17,0,0,1,2.916.1c.95.216,1.886,1.046,1.734,2.009-.262,1.651.554,3.458.335,5.115-.4,3.018-4.68,4.344-5.047,7.366a17.1,17.1,0,0,1-.112,1.992c-.193.794-.789,1.44-1,2.229-.4,1.5.67,2.983,1.846,3.989s2.58,1.873,3.224,3.281c.68,1.488.346,3.224.567,4.845.483,3.539,3.54,6.163,6.686,7.855a6.984,6.984,0,0,1,2.608,1.909c.81,1.167.729,2.706,1,4.1.662,3.415,3.537,6.229,3.619,9.707.058,2.472-1.316,4.715-2.137,7.047a16.435,16.435,0,0,0,1.342,13.63,21.828,21.828,0,0,1,1.783,3.138c.775,2.006.524,4.286,1.238,6.314.945,2.681,3.541,4.9,3.293,7.728,1.179,2.448,3.782,3.651,6.4,4.379l4.691,1.306a6.028,6.028,0,0,0,2.751.321,2.065,2.065,0,0,0,1.764-1.873,17.141,17.141,0,0,1-6.571-2.472c-1.9-1.4-3.2-3.9-2.476-6.144.334-1.041,1.043-2.244.369-3.1-.386-.493-1.093-.621-1.529-1.071a2.337,2.337,0,0,1,.042-2.724,9.2,9.2,0,0,0,1.392-2.557,2.668,2.668,0,0,0-1.251-2.776,6.633,6.633,0,0,0,2.322-1.49,2.264,2.264,0,0,0,.412-2.565c1.426.181,3.11.269,4.047-.822a3.624,3.624,0,0,0,.4-3.283,14.022,14.022,0,0,1-.81-3.335,60.777,60.777,0,0,0,9.86-.334,6.394,6.394,0,0,0-3-3.754c1.482-.251,2.832-2.025,3.3-3.453a8.885,8.885,0,0,0,.059-4.459,2.393,2.393,0,0,1-.044-1.168,2.276,2.276,0,0,1,1.173-1.134L204.2,381.4a4.284,4.284,0,0,0,1.176-.868,3.5,3.5,0,0,0,.262-3.393,17.044,17.044,0,0,1-1.179-3.355c-.455-3.527,3.32-6.057,4.594-9.376a14.129,14.129,0,0,0,.7-4.111c.1-1.5.112-3.232-1.036-4.2-1.1-.924-2.82-.718-3.971-1.577-1.056-.788-1.42-2.317-2.573-2.953-1.047-.578-2.361-.21-3.525-.482-2.051-.478-3.342-2.842-5.436-3.061-1.182-.124-2.519.454-3.488-.234-.854-.607-.888-1.826-1.05-2.86a7.987,7.987,0,0,0-6.446-6.467c-1.219-.2-2.545-.121-3.582-.791s-1.531-1.948-2.356-2.887c-1.329-1.513-3.422-2.051-5.382-2.512l-7.975-1.875c-1.416-.333-3.241-.509-4,.731a5.731,5.731,0,0,0-.473,1.488,4.609,4.609,0,0,1-4.334,3.262,5.126,5.126,0,0,0-3.023-2.339,18.827,18.827,0,0,1-2.446-.582,3.435,3.435,0,0,1-1.491-4.765,4.276,4.276,0,0,0-.731-5.143,6.941,6.941,0,0,0-5.137-1.39c-.476-1.039.32-2.212,1.178-2.967s1.9-1.5,2.087-2.626c.294-1.774-1.97-3.121-3.688-2.592s-2.816,2.2-3.541,3.844a11.318,11.318,0,0,1-1.426,2.734,2.8,2.8,0,0,1-2.713,1.111c-1.415-.362-1.962-2.043-2.275-3.47a22.565,22.565,0,0,1-.755-5.813,7.6,7.6,0,0,1,2.192-5.293c2.353-2.16,5.961-1.948,9.136-1.6a2.32,2.32,0,0,1,.238-3.065,3.485,3.485,0,0,1,3.158-.776,4.352,4.352,0,0,1,2.447,1.463c.9,1.1,1.159,2.585,1.841,3.834s2.215,2.313,3.47,1.644c1.084-.579,1.256-2.082.986-3.281a12.334,12.334,0,0,1-.745-3.589c.186-2.337,2.609-3.744,4.747-4.707s4.586-2.257,4.925-4.577a4.173,4.173,0,0,1,.254-1.33,2.609,2.609,0,0,1,.957-.9c6.24-4.124,12.583-8.3,19.715-10.551.371-.117.415.013.793-.079.529-.306.179-1.152-.329-1.493s-1.186-.6-1.314-1.2c-.095-.439.164-.871.231-1.315a1.642,1.642,0,0,0-2.155-1.663c-.573-.759.561-1.64,1.477-1.893a40.117,40.117,0,0,1,8.428-1.377,1.518,1.518,0,0,1,.959.163,1.147,1.147,0,0,1,.078,1.566,9.213,9.213,0,0,1-1.29,1.171,3.521,3.521,0,0,0-.913,3.541c1.488.757,3.106,1.536,4.754,1.269s3.111-2.118,2.336-3.6c-.721-1.377-2.888-1.688-3.261-3.2-.436-1.767,2.065-3.339,1.5-5.07-.247-.758-1-1.2-1.582-1.752a4.753,4.753,0,0,1-1.04-5.27,6,6,0,0,1-5.259-1.646c-1.258-1.27-2.262-3.272-4.048-3.215-1.639.052-3.051,1.965-4.584,1.381-.377-.144-.775-.436-1.14-.265a.942.942,0,0,0-.425.706c-.389,1.862.281,3.984-.734,5.593-1.1,1.751-3.659,1.994-5,3.573-.727.857-1.008,2.012-1.677,2.916s-2.086,1.478-2.888.691a3.98,3.98,0,0,0-1.081-4.84,10.621,10.621,0,0,0-2.388-1.162,14.163,14.163,0,0,1-2.668-1.487,2.628,2.628,0,0,1-.98-1.048,2.389,2.389,0,0,1,.067-1.657,6.777,6.777,0,0,1,5.393-4.47c1.068-.145,2.31-.094,3.016-.907.374-.43.57-1.081,1.113-1.256a1.641,1.641,0,0,1,1.027.126l3.985,1.4a2.8,2.8,0,0,0,1.419.235.962.962,0,0,0,.832-1.011c-.127-.662-1.145-.979-1.053-1.647a1.1,1.1,0,0,1,.333-.561,14.246,14.246,0,0,1,11.3-4.462c.5.826-.292,1.8-.954,2.509s-1.194,1.965-.393,2.508a2.195,2.195,0,0,0,1.061.239,9.263,9.263,0,0,1,2.824.857q2.065.9,4.051,1.967a5.137,5.137,0,0,1,.1-2.609,1.767,1.767,0,0,1,2.093-1.139c.792.306,1.2,1.355,2.041,1.451,1.125.128,1.569-1.534,1.1-2.564s-1.4-1.893-1.478-3.023c-.052-.762.238-1.707-.371-2.169a1.657,1.657,0,0,0-.718-.252l-15.2-2.8c-.9-.166-2.207-.039-2.247.878-.022.512.435,1.018.232,1.489-.216.5-.926.456-1.443.634A1.973,1.973,0,0,0,176.292,246a5.769,5.769,0,0,0,.952,2.336C176.255,247.922,174.758,247.846,173.769,247.433Z" transform="translate(-53.308 -150.507)" fill="#3f3d56"/>
  <path id="Path_1129" data-name="Path 1129" d="M281.22,228.659a4.922,4.922,0,0,0-5.407,1.619,1.083,1.083,0,0,0-.251,1.141c.3.512,1.066.31,1.63.127a4.1,4.1,0,0,1,2.575-.061c.53.182,1,.5,1.536.679a1.547,1.547,0,0,0,1.577-.23,2.054,2.054,0,0,0,.389-1.473,1.185,1.185,0,0,0-.3-.974,1.548,1.548,0,0,0-.7-.207,2.4,2.4,0,0,1-1.408-.823" transform="translate(-172.887 -144.637)" fill="#3f3d56"/>
  <path id="Path_1130" data-name="Path 1130" d="M302.263,225.124a1.252,1.252,0,0,0-1.21,1.763,5.075,5.075,0,0,0,2.024.132,1.73,1.73,0,0,0,1.414-1.3,3.256,3.256,0,0,1-2.305-.44" transform="translate(-188.449 -142.628)" fill="#3f3d56"/>
  <path id="Path_1131" data-name="Path 1131" d="M343.467,215.967a23.278,23.278,0,0,0-5.189,1.763,3.9,3.9,0,0,1,2.49,3.916,2.039,2.039,0,0,0,.024.968c.191.462.743.635,1.228.754a8.1,8.1,0,0,0,2.694.344,2.744,2.744,0,0,0,2.23-1.363,9.718,9.718,0,0,1,.464-1.1c1.164-1.772,4.621.371,5.87-1.342.44-.6.4-1.512.974-1.99a2.187,2.187,0,0,1,1-.382,70.29,70.29,0,0,1,7.6-1.083c1.209-.105,2.785-.539,2.8-1.753a21.06,21.06,0,0,0-13.434,1.807c-1.5.75-3.478,2.328-4.921,1.333-.54-.372-.513-1.375-1.257-1.794A3.79,3.79,0,0,0,343.467,215.967Z" transform="translate(-211.264 -136.019)" fill="#3f3d56"/>
  <path id="Path_1132" data-name="Path 1132" d="M388.733,218.394l2.138.411a2.771,2.771,0,0,0-2.883,3c2,.669,4.185.018,6.294.107s4.563,1.6,4.2,3.676c-.109.629-.472,1.257-.283,1.867a6.949,6.949,0,0,0,.722,1.124,2.518,2.518,0,0,1-.471,2.6c-.56.746-1.312,1.34-1.8,2.133-1.222,1.97-.528,4.518.2,6.719a5.924,5.924,0,0,0,1.139,2.275c1.078,1.147,2.836,1.246,4.41,1.269,1.146.017,2.458-.04,3.182-.927.946-1.159.284-2.967.907-4.327.566-1.235,2.006-1.765,3.312-2.141a49.554,49.554,0,0,0,7.09-2.314c2.807-1.291,5.431-3.3,8.517-3.47a11.69,11.69,0,0,0,2.587-.182,1.967,1.967,0,0,0,1.563-1.823c-.054-.739-.679-1.281-1.167-1.838s-.872-1.413-.423-2l8.088-1.511c-.573-1.562-1.02-3.62.3-4.637.475-.367,1.112-.514,1.517-.957a1.962,1.962,0,0,0-.453-2.7,5.2,5.2,0,0,0-2.893-.877,77.617,77.617,0,0,0-10.667.095l-20.838,1.142a15.225,15.225,0,0,0-4.3.437c-1.086.4-1.858,1.145-3.1,1.406C393.33,217.433,390.807,217.107,388.733,218.394Z" transform="translate(-241.634 -135.661)" fill="#3f3d56"/>
  <path id="Path_1133" data-name="Path 1133" d="M487.032,266.736a.86.86,0,0,0-.622.141.786.786,0,0,0-.2.48,3.169,3.169,0,0,0,.46,2.268,2.221,2.221,0,0,0,2.033.975c.963-.123,1.672-.944,2.557-1.345,1.364-.617,7.157-1.579,3.15-3.744-1.381-.746-2.273-.087-3.362.4A7.65,7.65,0,0,1,487.032,266.736Z" transform="translate(-301.631 -167.103)" fill="#3f3d56"/>
  <path id="Path_1134" data-name="Path 1134" d="M576.726,220.437a2.288,2.288,0,0,0-1.113.969.978.978,0,0,0,.367,1.3,1.46,1.46,0,0,0,.546.087l1.9.057c.808.024,1.818.2,2.035.975.161.578-.2,1.322.236,1.735a1.227,1.227,0,0,0,.647.252,4.411,4.411,0,0,0,1.917.062c1.384-.371.657-1.216,1.093-1.969.667-1.151.552-.454,1.727-1.114.868-.487,1.99-1.371,1.265-2.613C586.089,218.016,578.586,219.509,576.726,220.437Z" transform="translate(-356.226 -138.926)" fill="#3f3d56"/>
  <path id="Path_1135" data-name="Path 1135" d="M661.855,219.472l-1.1.147a44.5,44.5,0,0,0-7.4,1.416,12.311,12.311,0,0,0,3.239.795,9.95,9.95,0,0,1,1.814.258c1.06.316,2.128,1.13,3.152.713.635-.259.842-.92,1.368-1.27.363-.242,1.74-.633,1.894-.878C666.066,218.679,662.811,219.344,661.855,219.472Z" transform="translate(-403.8 -139.047)" fill="#3f3d56"/>
  <path id="Path_1136" data-name="Path 1136" d="M679.7,231.1a20.721,20.721,0,0,0-4.077,2.986,2.468,2.468,0,0,0-1,1.806c.063.945,1.069,1.493,1.941,1.862l3.532,1.5c.428-.6.036-1.438-.406-2.031s-.969-1.28-.773-1.994c.223-.815,1.217-1.093,2.05-1.233,1.358-.229,5.02-.21,4.58-2.4C685.026,229.017,681.063,230.341,679.7,231.1Z" transform="translate(-416.795 -145.656)" fill="#3f3d56"/>
  <path id="Path_1137" data-name="Path 1137" d="M685.482,584.637a3.37,3.37,0,0,0,.214,2.97,3.009,3.009,0,0,0,3.089,1.067,5.564,5.564,0,0,0,2.868-1.844,9.878,9.878,0,0,0,1.649-2.53,19.745,19.745,0,0,0,1.223-4.473l1.1-5.758c.245-1.287.235-5.232-2.13-3.946-.646.351-2.142,3.124-2.819,3.91-1.22,1.417-1.382,2.792-2.024,4.508C687.843,580.691,686.226,582.483,685.482,584.637Z" transform="translate(-423.286 -353.296)" fill="#3f3d56"/>
  <path id="Path_1138" data-name="Path 1138" d="M1001.719,681.916a17.245,17.245,0,0,1-2.247-1.07,18.943,18.943,0,0,0-1.139,6.209l5.3-3c.8-.451,1.7-1.077,1.682-1.992a.63.63,0,0,0-.293-.573.713.713,0,0,0-.371-.044,8.965,8.965,0,0,0-2.242.72,2.737,2.737,0,0,1-2.287.012" transform="translate(-614.61 -421.112)" fill="#3f3d56"/>
  <path id="Path_1139" data-name="Path 1139" d="M1065.392,685.263a11.471,11.471,0,0,0-1.7.609c-1.215.618-2.042,1.793-3.135,2.607a12.442,12.442,0,0,1-3.543,1.623.849.849,0,0,0,.2,1.252,2.456,2.456,0,0,0,1.4.314,7.386,7.386,0,0,0,3.764-.58,11.869,11.869,0,0,0,1.772-1.406,18.765,18.765,0,0,1,4.46-2.522,5.119,5.119,0,0,0,1.555-.929c.983-.968,1.052-2.462-.365-2.792C1068.651,683.173,1066.481,684.91,1065.392,685.263Z" transform="translate(-650.347 -422.679)" fill="#3f3d56"/>
  <path id="Path_1140" data-name="Path 1140" d="M1103.243,661.754a4.417,4.417,0,0,0-1.352-3.62,6.887,6.887,0,0,1-.8,3.856c-.534.785-1.372,1.316-1.957,2.064a2.011,2.011,0,0,0-.159,2.591,2.573,2.573,0,0,0,1.525.525c1.366.161,2.948.25,3.907-.737.523-.539.778-1.337,1.416-1.733a1.722,1.722,0,0,0,.621-.444c.263-.419-.155-.971-.626-1.122s-.99-.08-1.464-.223-.908-.676-.665-1.107" transform="translate(-675.858 -407.233)" fill="#3f3d56"/>
  <path id="Path_1141" data-name="Path 1141" d="M1020.53,534.545a6.141,6.141,0,0,1-2.192.129,7.939,7.939,0,0,1-3.146-1.893,13.875,13.875,0,0,0-8.107-2.833c-2.669-.05-5.363.673-7.984.168a3.15,3.15,0,0,0,1.856,2.092c.87.425,1.83.638,2.7,1.054a6.454,6.454,0,0,1,3.127,3.253,9.184,9.184,0,0,0,.885,1.946c.871,1.173,2.523,1.43,3.981,1.334,1.9-.125,3.886-.672,5.654.036,1.353.542,2.321,1.726,3.45,2.646s2.72,1.6,4.017.94a6.641,6.641,0,0,1-4.595-6.39c1.272.117,4.935.072,4.738-2.09C1024.75,533.107,1021.623,534.347,1020.53,534.545Z" transform="translate(-615.08 -328.9)" fill="#3f3d56"/>
  <path id="Path_1142" data-name="Path 1142" d="M951.734,570.239c.226-1.239,1.461-2.332,1.076-3.531a2.173,2.173,0,0,0-2.1-1.259c-.87-.02-1.726.239-2.6.263a12.651,12.651,0,0,0-1.7.024c-1.728.284-2.793,2.095-4.421,2.739a26.867,26.867,0,0,1-3.132.587c-2.337.614-3.816,2.823-5.45,4.6a19.45,19.45,0,0,1-9.872,5.757,9.015,9.015,0,0,0-3.814,1.368c-1.4,1.143-1.743,3.1-2.054,4.882a80.636,80.636,0,0,1-3.925,14.41l5.55.709a7.543,7.543,0,0,0,3.165-.046,9.187,9.187,0,0,0,2.082-1.109,20.785,20.785,0,0,1,8.12-2.931,8.621,8.621,0,0,1,4.341.3,4.037,4.037,0,0,1,2.648,3.228,3.41,3.41,0,0,1,3.408.829,5.924,5.924,0,0,1,1.627,3.248c.146.759.292,1.669,1,1.988.575.26,1.234-.02,1.863-.07,2.134-.171,3.9,2.317,6,1.889,2.249-.459,2.8-3.828,5-4.5,1.26-.388,3.028.084,3.632-1.089.532-1.033-.529-2.226-.42-3.383.135-1.425,1.815-2.029,3.111-2.637a9.7,9.7,0,0,0,4.422-12.541c-1.282-2.627-3.805-4.695-4.271-7.58-.359-2.22.517-4.809-.9-6.557-.72-.889-1.939-1.38-2.368-2.441a12.023,12.023,0,0,1-.307-2.131c-.145-.705-.76-1.443-1.457-1.26-2.022.531-2.667,6.777-3.75,8.295A2.511,2.511,0,0,1,951.734,570.239Z" transform="translate(-562.922 -349.691)" fill="#3f3d56"/>
  <path id="Path_1143" data-name="Path 1143" d="M910.806,547.451a3.255,3.255,0,0,0-2.107-.108c-.662.277-1.049,1.249-.517,1.731a71.36,71.36,0,0,1,12.461.242c4.749.65,9.448,2.262,14.218,1.788a72.365,72.365,0,0,0-8.294-1.925l-4.669-.892a36.1,36.1,0,0,0-3.792-.586C915.442,547.481,913.426,548.185,910.806,547.451Z" transform="translate(-559.368 -339.446)" fill="#3f3d56"/>
  <path id="Path_1144" data-name="Path 1144" d="M919.767,502.739c-.345-.029-.773-.054-.951.243s.025.658-.067.976c-.125.434-.694.545-1.142.486a2.189,2.189,0,0,0-1.33.015,1.127,1.127,0,0,0-.436,1.28,3.3,3.3,0,0,0,.769,1.225,12.521,12.521,0,0,0,1.994,2c1.429,1.055,3.364,1.563,4.264,3.094a2.054,2.054,0,0,0,.57.766,1.583,1.583,0,0,0,1.46-.147l1.63-.745a1.852,1.852,0,0,0,.762-.518,1.675,1.675,0,0,0-.169-1.768,3.039,3.039,0,0,1-.646-1.732c.12-1.113,1.551-1.539,2.139-2.491s.207-2.2.275-3.323c.08-1.317.908-3.031-.424-4.015-1.132-.836-2.213-.064-3.026.86C923.727,500.894,922.917,503,919.767,502.739Z" transform="translate(-564.167 -309.212)" fill="#3f3d56"/>
  <path id="Path_1145" data-name="Path 1145" d="M951,453.983c.557,1.066,1.717,1.7,2.324,2.74.658,1.125.583,2.578,1.3,3.669.732,1.119,2.206,1.713,2.616,2.985.448,1.389-.569,3.078.242,4.292a1.8,1.8,0,0,0,2.643.243,1.938,1.938,0,0,0-.08-2.7c-.48-.438-1.169-.627-1.57-1.138a2.387,2.387,0,0,1-.407-.99,6.484,6.484,0,0,1,.1-3.107,1.383,1.383,0,0,0,.078-.813c-.18-.525-.891-.562-1.389-.805-1.132-.553-1.1-2.151-.907-3.395-.132.828-3.083-.581-3.392-1.05-.614-.932-.28-2.73-.4-3.76A2.928,2.928,0,0,0,951,453.983Z" transform="translate(-585.499 -280.137)" fill="#3f3d56"/>
  <path id="Path_1146" data-name="Path 1146" d="M870.816,500.618c-.545-.61-1.365-1.248-2.1-.88a1.326,1.326,0,0,0-.492,1.636,3.6,3.6,0,0,0,1.188,1.416,41.469,41.469,0,0,1,4.488,3.846c2.376,2.611,3.634,6.133,6.218,8.538a3.487,3.487,0,0,0,1.958,1.06,1.522,1.522,0,0,0,1.685-1.163,2.218,2.218,0,0,0-.781-1.631c-1-1.092-2.1-2.1-3.05-3.237a2.721,2.721,0,0,1-.78-1.628c0-.614.555-1.257,1.15-1.1-.724-.185-1.26-1.391-2.323-1.617-.888-.189-1.1.36-2.159-.093C873.808,504.9,872.227,502.2,870.816,500.618Z" transform="translate(-535.048 -310.374)" fill="#3f3d56"/>
  <path id="Path_1147" data-name="Path 1147" d="M980,348.41a16.678,16.678,0,0,1-1.7-.608c-1.5-.449-3.475.651-3.276,2.2.133,1.029,1.09,1.723,1.62,2.616a5.813,5.813,0,0,1,.163,4.486,3.508,3.508,0,0,1-.566,1.276,4.325,4.325,0,0,1-1.341.964,17.931,17.931,0,0,0-5.246,4.457,1.284,1.284,0,0,0-.317.6c-.071.523.454.9.752,1.34.66.969.183,2.273.248,3.444a.974.974,0,0,0,.41.854c.4.2.87-.141,1.085-.532.716-1.3.177-3.379,1.52-4,.254-.118.562-.168.731-.391.269-.354.009-.878.146-1.3.2-.635,1.073-.664,1.74-.636a9.878,9.878,0,0,0,3.393-.452,2.259,2.259,0,0,0,1.123-.65,2.444,2.444,0,0,0,.286-1.85,25.081,25.081,0,0,0-2.963-9.042,5.387,5.387,0,0,0,3.481-.334c.57-.344,1.254-1.374.971-2.074C981.806,347.663,981,348.6,980,348.41Z" transform="translate(-596.883 -217.533)" fill="#3f3d56"/>
  <path id="Path_1148" data-name="Path 1148" d="M531.749,381.392a4.543,4.543,0,0,1,.032,2.284,1.562,1.562,0,0,1-1.766,1.115c-.572-.173-.9-.749-1.309-1.187-2.259-2.439-7.355-1.027-8.751-4.044-.57-1.231-.182-2.706-.571-4.006a3.566,3.566,0,0,0-3.611-2.453,7.421,7.421,0,0,0-2.078.62,52.4,52.4,0,0,1-13.768,3.444,11.312,11.312,0,0,0-2.646.481c-1.94.7-3.265,2.5-4.209,4.337a33.554,33.554,0,0,1-2.9,5.452,24.212,24.212,0,0,1-4.929,4.211,5.029,5.029,0,0,0-1.626,1.7,5.331,5.331,0,0,0-.326,2.532l.355,10.44a9.429,9.429,0,0,0,.7,3.935c.75,1.5,2.233,2.483,3.262,3.809a7.461,7.461,0,0,1,1.548,4.764c-.022.691-.091,1.509.448,1.943a1.968,1.968,0,0,0,1.1.317l14.122,1.156c2.484.2,5.237.538,6.859,2.43.765.893,1.38,2.178,2.553,2.274a9.486,9.486,0,0,0,1.5-.205,3.672,3.672,0,0,1,3.088,1.924,8.534,8.534,0,0,1,1.371,5.476c-.115,1.21-.491,2.387-.571,3.6-.308,4.616,3.6,8.626,3.681,13.251.045,2.721-1.247,5.263-2.506,7.675,2.032,3.079.368,7.178,1.177,10.777.768,3.415,3.615,6.088,4.324,9.515.325,1.569.344,3.5,1.727,4.308a3.937,3.937,0,0,0,1.954.391,25.763,25.763,0,0,0,11.732-2.671c1.711-.849,3.484-2.116,3.782-4,.241-1.521-.531-3.223.255-4.548.925-1.562,3.3-1.438,4.657-2.638,2.208-1.948.486-5.663,1.381-8.468.8-2.522,3.573-3.862,4.946-6.125a10.881,10.881,0,0,0,1.149-3.115,44.431,44.431,0,0,0,1.169-7.944,47.647,47.647,0,0,1,.359-4.866c1.48-9.193,10.568-15.349,13.519-24.181.282-.843.414-1.967-.336-2.444a2.149,2.149,0,0,0-1.429-.15l-6.51.821a4.481,4.481,0,0,1-2.408-.139,1.545,1.545,0,0,1-.881-1.989c1.106-2-1.169-4.534-2.179-6.586a97.187,97.187,0,0,0-9.678-15.7,1.6,1.6,0,0,1-.424-.921l1.848.062c-.624-2.238-1.653-4.687-3.827-5.506a9.528,9.528,0,0,0-3.889-.23A56.832,56.832,0,0,1,531.749,381.392Z" transform="translate(-299.868 -233.05)" fill="#3f3d56"/>
  <path id="Path_1149" data-name="Path 1149" d="M562.062,240.937c.98,1.04,2.078,2.144,3.5,2.325,2.5.32,4.3-2.269,5.45-4.518a2.208,2.208,0,0,0,2.3,2.042,4.547,4.547,0,0,0,1.733-.677,34.133,34.133,0,0,1,16.171-4.18,1.746,1.746,0,0,1,1.334-1.92c1.149-.228,2.185.766,2.739,1.8a9.9,9.9,0,0,0,1.781,3c.881.773,2.587.739,2.935-.38.334-1.074-.785-1.99-1.715-2.624s-1.91-1.806-1.284-2.74a83.535,83.535,0,0,1,14.39-2.316,6.026,6.026,0,0,0,2.422-.417,1.883,1.883,0,0,0,1.131-1.991,5.485,5.485,0,0,1-5.724-2.159c6.744-.557,13.917-1.031,19.894,2.143.717,1.54-2.938,2.821-1.96,4.21a1.77,1.77,0,0,0,1.479.5,73.329,73.329,0,0,0,12.437-.474,16.654,16.654,0,0,1,4.523-.367c2.51.31,4.656,1.984,7.125,2.53a3.812,3.812,0,0,0,2.979-.355,1.889,1.889,0,0,0,.517-2.675c2.325-2.278,6.183-1.714,9.25-.623s5.972,2.85,9.218,3.093c2.328.174,4.688-.452,6.987-.054a43.506,43.506,0,0,1,4.2,1.288c2.672.747,5.5.589,8.272.625a57.958,57.958,0,0,1,20.654,4.1,6.141,6.141,0,0,1,2.3,1.357,2.251,2.251,0,0,1,.513,2.47l-6.8-.993c.64,1.26,2.3,1.475,3.642,1.91s2.74,1.92,1.932,3.08c-1.458-.464-2.778.993-3.515,2.334s-1.633,2.946-3.161,3.028c-1.368.073-3.022-1.091-3.913-.052a26.69,26.69,0,0,1,3.145,5.027c.881,1.835,1.508,4.147.318,5.8a1.5,1.5,0,0,1-.8.623c-.972.246-1.6-.943-2.3-1.664-.879-.908-2.207-1.166-3.4-1.592s-2.443-1.264-2.536-2.525a5.042,5.042,0,0,1,.661-2.238,8.622,8.622,0,0,0,.655-3.867,4.392,4.392,0,0,0-1.129-2.914,2.262,2.262,0,0,0-2.9-.3c-.383.318-.689.826-1.186.845-.878.034-1.552-1.5-2.259-.975a2.4,2.4,0,0,1-.326,1.605c-2.108,1.834-5.347,1.058-8.065,1.706a15.138,15.138,0,0,0-3.679,1.607,2.367,2.367,0,0,0-1.052.883,1.628,1.628,0,0,0,.633,1.942,5.024,5.024,0,0,0,2.086.712c3.313.628,6.675,1.6,9.291,3.727s4.331,5.646,3.5,8.915l-6.534-6.244q.372,3.932.423,7.886a3.545,3.545,0,0,1-.207,1.517c-.466,1.029-1.728,1.375-2.835,1.6a2.22,2.22,0,0,0-1.7,2.845,9.278,9.278,0,0,0,2.271,3.275,6.29,6.29,0,0,1,1.9,3.462c.117,1.335-.89,2.84-2.227,2.747a2.938,2.938,0,0,1-2.2-1.9A12.051,12.051,0,0,0,684,283.053c-1.966-2.364-6.382-1.351-8.143-3.872a3.983,3.983,0,0,0-.824,3.79,2.087,2.087,0,0,1,2.557.709,17.465,17.465,0,0,1,1.389,2.538c.652,1.13,1.691,2.131,1.782,3.432a11.229,11.229,0,0,0,.025,1.476,5.968,5.968,0,0,0,1.29,2.014,5.78,5.78,0,0,1,.329,5.38,16.59,16.59,0,0,1-3.171,4.6,55.517,55.517,0,0,1-6.9,6.954,7.254,7.254,0,0,0-1.96,1.973,2.139,2.139,0,0,0,.22,2.581c-.5.025-1.394.27-1.893.3a43.994,43.994,0,0,1-.114-6.019c-1.969-.945-4.089,1.586-3.835,3.756s1.823,3.91,2.94,5.787A6.838,6.838,0,0,1,668.84,323a3.343,3.343,0,0,1-3.269,2.887c-2.531-.221-3.59-3.854-6.1-4.27a1.024,1.024,0,0,0-.66.065c-.372.2-.437.7-.458,1.126a13.973,13.973,0,0,0,.621,6.162c1.188,2.806,4.257,5.163,3.613,8.141-3.468-1.612-5.272-5.5-6.09-9.238s-.955-7.658-2.423-11.19c-1.115,1.428-3.457.248-4.475-1.251-.965-1.421-1.56-3.064-2.5-4.5a5.537,5.537,0,0,0-4.087-2.808c-1.8-.083-3.359,1.151-4.731,2.318a11.03,11.03,0,0,0-2.946,3.282c-.96,1.929-.709,4.2-.755,6.358a9.709,9.709,0,0,1-2.131,6.492c-1.587,1.705-4.517,2.3-6.268.762a7.063,7.063,0,0,1-1.751-3.151,154.3,154.3,0,0,1-4.74-16.922c-.294,1.307-1.442,2.992-2.538,2.222a2.272,2.272,0,0,1-.585-.753c-2.045-3.466-5.832-5.545-9.659-6.792s-7.853-1.828-11.637-3.2a29.476,29.476,0,0,1-6.036-3.007,4.747,4.747,0,0,0-.29,4.856,3.868,3.868,0,0,0,4.365,1.827c.84-.268,1.55-.852,2.384-1.14a1.86,1.86,0,0,1,2.317.657c.349.769-.178,1.7.083,2.5.4,1.223,2.242,1.317,2.887,2.429a2.238,2.238,0,0,1-.6,2.6,10.858,10.858,0,0,1-2.435,1.5c-2.713,1.509-4.643,4.084-7.014,6.088s-5.717,3.467-8.542,2.181c.674-3.411-3.389-5.915-4.137-9.31-.246-1.118-.118-2.3-.47-3.394-.509-1.577-1.908-2.661-3.055-3.856a15.134,15.134,0,0,1-4.151-11.01,15.455,15.455,0,0,0,0-4.2c-.32-1.368-1.452-2.692-2.855-2.63-3.205.142-7.243.38-8.924-2.352-.6-.975-.861-2.4.006-3.15a3.047,3.047,0,0,1,2.32-.4l7.222.71c1.689.166,3.515.3,4.964-.58s2.077-3.227.735-4.266c-.981-.759-2.737-.718-3.023-1.925-.237-1.005.875-2.146.274-2.986-.431-.6-1.4-.435-1.986.016a12.725,12.725,0,0,1-1.67,1.454c-1.152.6-2.529.029-3.769-.359s-2.9-.421-3.5.731c-.672,1.288.6,2.975-.071,4.266-.882,1.706-3.871.735-5.11,2.2-1.422,1.684.968,4.195.488,6.346a3.95,3.95,0,0,1-3.892-.219,3.781,3.781,0,0,1-1.634-3.52c.119-.968.623-1.956.285-2.87a3.368,3.368,0,0,0-1.706-1.561l-7.018-3.878c-.652,1.209.172,2.707,1.2,3.615s2.32,1.592,3,2.786a3.657,3.657,0,0,1-1.376,4.822.844.844,0,0,1-.7.121.97.97,0,0,1-.451-.607c-1.238-3.169-3.1-6.293-6.069-7.948s-7.243-1.315-9.192,1.473c-.463.662-.774,1.417-1.177,2.117-2.143,3.72-6.736,5.482-11.027,5.367a2.19,2.19,0,0,1-1.2-.283c-.694-.479-.662-1.5-.556-2.332l.451-3.549a2.819,2.819,0,0,1,.786-1.945c.795-.627,1.942-.231,2.954-.246a3.744,3.744,0,0,0,3.4-2.623,4.219,4.219,0,0,0-1.175-4.2c-.464-.436-1.087-.983-.842-1.571a1.3,1.3,0,0,1,.911-.613c1.819-.528,3.74-.667,5.529-1.29s3.523-1.9,3.946-3.744c.13-.566.189-1.251.7-1.531a2.09,2.09,0,0,1,.805-.165,3.919,3.919,0,0,0,3.362-4.086c.857-.6,2.058-.158,2.887.479a8.125,8.125,0,0,0,2.57,1.753c1.88.512,3.7-1.153,5.645-1.161a7.274,7.274,0,0,0,2.438.009c.781-.282,1.248-1.06,1.848-1.634s1.652-.925,2.206-.306l-.472-3.493a6.867,6.867,0,0,0,5.589-1.01l-6.1-2.059a1.326,1.326,0,0,1-.57-.3c-.443-.477,0-1.221.357-1.763.862-1.3,1.007-3.435-.411-4.081-.968-.441-2.078.088-3.007.606l-4.449,2.481c-.141.846.893,1.325,1.534,1.894a2.571,2.571,0,0,1-1.677,4.493,3.2,3.2,0,0,1,.572,2.716l-2.993.215A1.3,1.3,0,0,1,540,254.7c-.32-.284-.277-.783-.351-1.2a2.613,2.613,0,0,0-2.193-1.914,7.712,7.712,0,0,0-3.065.283,1.829,1.829,0,0,1-1.317-.03,1.316,1.316,0,0,1-.521-.658,3.38,3.38,0,0,1,.68-3.245,18.007,18.007,0,0,1,2.552-2.347,14.874,14.874,0,0,0,4.423-6.86c1.648-.69,3.354-1.628,5-2.319a15.3,15.3,0,0,1,8.226-1.594l5.58.107a13.381,13.381,0,0,1,4.877.7,4.547,4.547,0,0,1,2.975,3.641,1.118,1.118,0,0,1-.358,1.022,1.318,1.318,0,0,1-.706.159C564.259,240.5,563.6,240.883,562.062,240.937Z" transform="translate(-318.714 -143.029)" fill="#3f3d56"/>
  <path id="Path_1150" data-name="Path 1150" d="M515.719,306.821a1.633,1.633,0,0,0,.445-1.642,3.055,3.055,0,0,0-3.163.6,5.334,5.334,0,0,0-.847,1.12c-.733,1.2-1.382,2.625-.957,3.963a1.125,1.125,0,0,0,.515.7,1.355,1.355,0,0,0,.6.094,20.128,20.128,0,0,0,2.417-.149c.492-.06,1.064-.2,1.255-.657.25-.6-.355-1.284-.179-1.911a2.089,2.089,0,0,1,.516-.738.976.976,0,0,0,.3-.82c-.071-.295-.522-.462-.685-.206" transform="translate(-316.849 -191.423)" fill="#3f3d56"/>
  <path id="Path_1151" data-name="Path 1151" d="M529.033,295.49a6.761,6.761,0,0,0-2.19-.137.955.955,0,0,0-.467.106.778.778,0,0,0-.288.416,2.069,2.069,0,0,0,1.2,2.535,2.588,2.588,0,0,1,.747.3c.619.481.224,1.463.342,2.238.132.87.974,1.6.82,2.468-.122.683-.851,1.223-.734,1.907.123.716,1.031.931,1.755.988a2.208,2.208,0,0,0,1.244-.143,1.926,1.926,0,0,0,.785-1.136,7.284,7.284,0,0,0,.367-2.743,2.6,2.6,0,0,0-.309-1.211,6.754,6.754,0,0,0-.723-.828C530.2,298.637,531.66,296.23,529.033,295.49Z" transform="translate(-325.974 -185.523)" fill="#3f3d56"/>
  <path id="Path_1152" data-name="Path 1152" d="M528,439.22s-106.254-60.992-152-49.435c0,0-96.944,10.433-108.18,33.385,0,0-30.817-96.3-42.052-99.512" transform="translate(-142.513 -202.841)" fill="none" stroke="#6c63ff" stroke-miterlimit="10" stroke-width="2" opacity="0.8"/>
  <path id="Path_1153" data-name="Path 1153" d="M267.822,422.161c17.816-47.509,178.32-100.154,178.32-100.154C423.35,327.785,376,388.776,376,388.776S275.847,315.908,225.77,322.649c0,0,220.532,7.223,302.229,115.563" transform="translate(-142.513 -201.832)" fill="none" stroke="#6c63ff" stroke-miterlimit="10" stroke-width="2" opacity="0.8"/>
  <circle id="Ellipse_94" data-name="Ellipse 94" cx="4.655" cy="4.655" r="4.655" transform="translate(78.603 116.162)" fill="#6c63ff"/>
  <circle id="Ellipse_95" data-name="Ellipse 95" cx="4.655" cy="4.655" r="4.655" transform="translate(120.655 215.674)" fill="#6c63ff"/>
  <circle id="Ellipse_96" data-name="Ellipse 96" cx="4.655" cy="4.655" r="4.655" transform="translate(298.974 115.52)" fill="#6c63ff"/>
  <circle id="Ellipse_97" data-name="Ellipse 97" cx="4.655" cy="4.655" r="4.655" transform="translate(380.832 231.725)" fill="#6c63ff"/>
  <circle id="Ellipse_98" data-name="Ellipse 98" cx="4.655" cy="4.655" r="4.655" transform="translate(228.834 182.29)" fill="#6c63ff"/>
</svg>
