<svg id="Telco_image_1" data-name="Telco image 1" xmlns="http://www.w3.org/2000/svg" width="402.333" height="311.175" viewBox="0 0 402.333 311.175">
  <path id="Path_1191" data-name="Path 1191" d="M397.666,321.47A110.184,110.184,0,1,1,475.578,289.2a110.184,110.184,0,0,1-77.912,32.272Zm0-219.65A109.466,109.466,0,1,0,507.132,211.286,109.59,109.59,0,0,0,397.666,101.82Z" transform="translate(-198.473 -70.729)" fill="#3f3d56"/>
  <path id="Path_1192" data-name="Path 1192" d="M600.2,654.248c-2.04,7.543-9.029,12.214-9.029,12.214s-3.681-7.558-1.64-15.1,9.029-12.214,9.029-12.214S602.24,646.706,600.2,654.248Z" transform="translate(-391.726 -415.674)" fill="#6c63ff"/>
  <path id="Path_1193" data-name="Path 1193" d="M567.54,654.248c2.04,7.543,9.029,12.214,9.029,12.214s3.681-7.558,1.64-15.1-9.029-12.214-9.029-12.214S565.5,646.706,567.54,654.248Z" transform="translate(-377.629 -415.674)" fill="#6c63ff"/>
  <path id="Path_1194" data-name="Path 1194" d="M552,666.151c5.6,5.45,6.283,13.829,6.283,13.829s-8.394-.458-13.993-5.909-6.283-13.829-6.283-13.829S546.4,660.7,552,666.151Z" transform="translate(-359.091 -429.198)" fill="#3f3d56"/>
  <path id="Path_1195" data-name="Path 1195" d="M600.783,666.151c-5.6,5.45-6.283,13.829-6.283,13.829s8.394-.458,13.993-5.909,6.283-13.829,6.283-13.829S606.382,660.7,600.783,666.151Z" transform="translate(-395.307 -429.198)" fill="#3f3d56"/>
  <path id="Path_1196" data-name="Path 1196" d="M567.54,114.362c2.04-7.543,9.029-12.214,9.029-12.214s3.681,7.558,1.64,15.1-9.029,12.214-9.029,12.214S565.5,121.9,567.54,114.362Z" transform="translate(-377.629 -71.407)" fill="#6c63ff"/>
  <path id="Path_1197" data-name="Path 1197" d="M600.2,114.362c-2.04-7.543-9.029-12.214-9.029-12.214s-3.681,7.558-1.64,15.1,9.029,12.214,9.029,12.214S602.24,121.9,600.2,114.362Z" transform="translate(-391.726 -71.407)" fill="#6c63ff"/>
  <path id="Path_1198" data-name="Path 1198" d="M600.783,115.995c-5.6-5.45-6.283-13.829-6.283-13.829s8.394.458,13.993,5.909,6.283,13.829,6.283,13.829S606.382,121.445,600.783,115.995Z" transform="translate(-395.307 -71.418)" fill="#3f3d56"/>
  <path id="Path_1199" data-name="Path 1199" d="M552,115.995c5.6-5.45,6.283-13.829,6.283-13.829s-8.394.458-13.993,5.909-6.283,13.829-6.283,13.829S546.4,121.445,552,115.995Z" transform="translate(-359.091 -71.418)" fill="#3f3d56"/>
  <rect id="Rectangle_2237" data-name="Rectangle 2237" width="142.649" height="145.058" transform="translate(5.25 4.55)" fill="#6c63ff"/>
  <path id="Path_1200" data-name="Path 1200" d="M157.212,22.935H22.935V158.756h7.2V30.652H157.212Z" transform="translate(-14.704 -14.704)" fill="#3f3d56"/>
  <path id="Path_1201" data-name="Path 1201" d="M157.212,22.935H22.935V158.756h7.2V30.652H157.212Z" transform="translate(-14.704 -14.704)" opacity="0.3"/>
  <path id="Path_1202" data-name="Path 1202" d="M149.5,44.437H43V62.958H143.84V172.54h26.238V44.437Z" transform="translate(-27.569 -28.488)" opacity="0.1"/>
  <path id="Path_1203" data-name="Path 1203" d="M39.5,16.495V168.778H190.24V16.495ZM182.009,160.547H47.732V24.726H182.009Z" transform="translate(-39.5 -16.495)" fill="#3f3d56"/>
  <path id="Path_1204" data-name="Path 1204" d="M321.313,456.438s6.816,13.206,10.65,16.189-6.177,6.6-6.177,6.6l-11.716-18.319Z" transform="translate(-215.526 -298.54)" fill="#a0616a"/>
  <path id="Path_1205" data-name="Path 1205" d="M195.522,366.821s31.738,8.307,34.507,13.846,11.289,18.958,11.289,18.958l-12.567,10.011L216.4,391.1l-34.081-15.337Z" transform="translate(-131.058 -241.087)" fill="#2f2e41"/>
  <path id="Path_1206" data-name="Path 1206" d="M330.809,498.384s-2.982-2.556-3.834-.852-3.408,10.437-3.408,10.437,3.621,3.408,11.076,1.278c0,0,1.917-1.491,4.9,0s14.059-1.491,13.633-6.39-11.715-4.473-11.715-4.473-4.755-5.327-5.36-3.3.247,2.238.247,2.238S332.514,501.367,330.809,498.384Z" transform="translate(-221.614 -323.02)" fill="#2f2e41"/>
  <path id="Path_1207" data-name="Path 1207" d="M238.453,492.641l-2.13,17.893H246.76s-.852-13.846-.639-15.55S238.453,492.641,238.453,492.641Z" transform="translate(-165.682 -321.75)" fill="#a0616a"/>
  <path id="Path_1208" data-name="Path 1208" d="M252.027,382.845s5.751,8.52,2.343,9.159-6.177-9.159-6.177-9.159Z" transform="translate(-173.292 -251.36)" fill="#a0616a"/>
  <path id="Path_1209" data-name="Path 1209" d="M136.944,377.427s-4.26,12.568,12.567,15.976,21.939,6.177,21.939,6.177l2.13,21.727,14.7.852s7.029-33.016-2.13-37.276-28.543-9.159-28.543-9.159Z" transform="translate(-101.662 -246.794)" fill="#2f2e41"/>
  <path id="Path_1210" data-name="Path 1210" d="M229.981,525.155a26.88,26.88,0,0,1,3.408-1.491s1.872-4.318,5.3-3.863l7.478,10.893s11.289,8.094,3.408,10.224a29.133,29.133,0,0,1-14.059.426l-3.2-2.343s.426-2.343-2.343-1.917c0,0-5.751-2.343-5.538-4.047s4.737-9.122,4.737-9.122Z" transform="translate(-158.062 -339.14)" fill="#2f2e41"/>
  <circle id="Ellipse_117" data-name="Ellipse 117" cx="8.52" cy="8.52" r="8.52" transform="translate(65.209 72.162)" fill="#a0616a"/>
  <path id="Path_1211" data-name="Path 1211" d="M208.967,233.878s-7.668,5.538-9.159,5.751,7.029,10.65,7.029,10.65,4.047-6.6,6.6-7.455S208.967,233.878,208.967,233.878Z" transform="translate(-142.16 -155.858)" fill="#a0616a"/>
  <path id="Path_1212" data-name="Path 1212" d="M162,245.853s-3.2-4.26-5.112-4.26-19.171,1.917-20.662,16.189-.639,39.194-.639,39.194-1.278-6.177,12.993-3.621c0,0,17.041-3.621,20.023-3.621s4.26-30.46,4.26-30.46l-4.85-7.52S165.837,255.865,162,245.853Z" transform="translate(-100.947 -160.804)" fill="#d0cde1"/>
  <path id="Path_1213" data-name="Path 1213" d="M226.8,286.105l3.2,1.7,3.834,23.431,5.325,12.141s-5.751-1.98-6.177.395l-8.52-12.323Z" transform="translate(-158.073 -189.34)" fill="#d0cde1"/>
  <path id="Path_1214" data-name="Path 1214" d="M227.652,207.971l4.635.579c-.088.943-.064,2.112.772,2.558.393.21.891.2,1.24.477.838.668.018,2.1.491,3.065l1.356.359a2.62,2.62,0,0,0,3.561,1.068,5.083,5.083,0,0,0,1.785-2.572,6.514,6.514,0,0,0,.744-3.675c-.263-1.338-1.357-2.45-1.406-3.813-.022-.61.107-1.37-.407-1.7a2.173,2.173,0,0,0-.752-.2c-1.184-.247-1.844-1.473-2.727-2.3-1.851-1.733-4.693-1.687-7.223-1.536a6.416,6.416,0,0,0-2.126.371,6.194,6.194,0,0,0-2,1.6,20.923,20.923,0,0,0-3.574,4.734,8.4,8.4,0,0,0-.85,5.763c-.048-.185,1.563-1.4,1.763-1.59a4.176,4.176,0,0,0,1.028-1.6C224.753,207.92,225.857,207.747,227.652,207.971Z" transform="translate(-155.838 -134.276)" fill="#2f2e41"/>
  <path id="Path_1215" data-name="Path 1215" d="M162.1,281.777l.639,14.911,9.475,11.111L163.6,295.41Z" transform="translate(-103.924 -180.646)" opacity="0.1"/>
  <path id="Path_1216" data-name="Path 1216" d="M114.625,293.054l7.455,17.254,9.585,7.881-10.224-7.029Z" transform="translate(-73.485 -187.875)" opacity="0.1"/>
  <path id="Path_1217" data-name="Path 1217" d="M253.368,348.273l4.5,3.1a1.244,1.244,0,0,1,.344,1.53l-.6,1.243.14.1-.685,1.413-.14-.1-4.962,10.24a.961.961,0,0,1-1.43.456l-4.233-2.912a1.43,1.43,0,0,1-.4-1.76l6.265-12.928a.8.8,0,0,1,1.194-.381Z" transform="translate(-171.732 -229.11)" fill="#3f3d56"/>
  <path id="Path_1218" data-name="Path 1218" d="M207.976,345.472l4.848,3.335,6.325-13.052L214.3,332.42Z" transform="translate(-133.332 -213.113)" fill="#fff"/>
  <path id="Path_1219" data-name="Path 1219" d="M235.227,377.276s8.449,5.855,5.5,7.686-9.078-6.3-9.078-6.3Z" transform="translate(-162.689 -247.79)" fill="#a0616a"/>
  <path id="Path_1220" data-name="Path 1220" d="M156.521,256.431s-11.076,3.2-7.881,12.993c.771,2.364,1.7,4.9,2.673,7.39C154.365,284.645,157.8,292,157.8,292l9.628,8.705,12.951,3.649,1.491-1.278s.426-4.047-1.491-4.473a23.672,23.672,0,0,1-4.9-2.13l-7.668-11.289S167.6,257.07,156.521,256.431Z" transform="translate(-109.098 -170.317)" fill="#d0cde1"/>
  <rect id="Rectangle_2238" data-name="Rectangle 2238" width="139.252" height="141.604" transform="translate(397.208 253.894) rotate(180)" fill="#6c63ff"/>
  <path id="Path_1221" data-name="Path 1221" d="M733.389,322.881h131.08V455.468h-7.031V330.414H733.389Z" transform="translate(-470.172 -206.997)" fill="#3f3d56"/>
  <path id="Path_1222" data-name="Path 1222" d="M733.389,322.881h131.08V455.468h-7.031V330.414H733.389Z" transform="translate(-470.172 -206.997)" opacity="0.3"/>
  <path id="Path_1223" data-name="Path 1223" d="M753.478,343.871h103.96v18.08H759V468.924H733.389V343.871Z" transform="translate(-470.172 -220.454)" opacity="0.1"/>
  <path id="Path_1224" data-name="Path 1224" d="M750.5,316.987V465.645H897.651V316.987Zm8.036,8.036h131.08V457.609H758.536Z" transform="translate(-495.318 -209.139)" fill="#3f3d56"/>
  <path id="Path_1225" data-name="Path 1225" d="M946.4,502.218c-3.169-5.354-9.438-5.6-9.438-5.6s-6.109-.781-10.028,7.373c-3.653,7.6-8.694,14.939-.812,16.718l1.424-4.431.882,4.761a30.853,30.853,0,0,0,3.372.058c8.441-.273,16.48.08,16.221-2.949C947.677,514.118,949.448,507.37,946.4,502.218Z" transform="translate(-605.233 -324.284)" fill="#2f2e41"/>
  <path id="Path_1226" data-name="Path 1226" d="M885.748,611.407l-.667,12,19.555,2,.667-12.444-6.667-4.222Z" transform="translate(-567.421 -390.261)" fill="#a0616a"/>
  <path id="Path_1227" data-name="Path 1227" d="M949.615,671.876c-.586-5.669-23.867-8.242-29.462-8.779l-2.092-1.22-.667-7.111s-20.666-1.778-22.221-2-2.889,2.667-2.889,3.333a15.8,15.8,0,0,1-1.458,5.962c-2.521,2.026-10.208,8.4-10.208,10.815,0,2.889,6.111,39.221,6.111,39.221l.667,7.555,6.222,1.111-.444-23.554s2.222-13.555-.889-17.333V678.32s9.125-2.377,12.34-4.966c.932-.2,3.55-.694,5-.265.2.117.427.237.681.359a1.026,1.026,0,0,1,.092.094l.025-.038c4.16,1.947,14.832,4.4,19.2,3.7a15.273,15.273,0,0,1,9.777,1.778c-2.444,3.111-.667,12-.667,12l.222,19.11,3.111,3.778h4.222V703.43S950.282,678.32,949.615,671.876Z" transform="translate(-578.736 -424.397)" fill="#2f2e41"/>
  <circle id="Ellipse_118" data-name="Ellipse 118" cx="7.333" cy="7.333" r="7.333" transform="translate(322.438 177.927)" fill="#a0616a"/>
  <path id="Path_1228" data-name="Path 1228" d="M935.621,545.676s1.111,4.889-.444,5.333a21.027,21.027,0,0,0-3.555,1.555l-1.778,5.778v5.778l21.555,2.444.667-2v-2.889l-2.444-4.444-1.111-1.111s-4.889-5.333-3.778-10.444Z" transform="translate(-610.294 -355.75)" fill="#a0616a"/>
  <path id="Path_1229" data-name="Path 1229" d="M989.971,594.9s.667,7.777,0,11.333a49.251,49.251,0,0,0-.444,8.888l-4.889-.889v-12l1.111-6.444Z" transform="translate(-645.423 -387.306)" fill="#a0616a"/>
  <circle id="Ellipse_119" data-name="Ellipse 119" cx="4.533" cy="4.533" r="4.533" transform="translate(327.963 167.825)" fill="#2f2e41"/>
  <path id="Path_1230" data-name="Path 1230" d="M950.253,485.306a4.533,4.533,0,0,1,4.055-4.507,4.533,4.533,0,1,0,0,9.015A4.533,4.533,0,0,1,950.253,485.306Z" transform="translate(-622.767 -314.141)" fill="#2f2e41"/>
  <path id="Path_1231" data-name="Path 1231" d="M917.17,488.536l-6.193-3.244-8.553,1.327-1.769,7.816,4.4-.169,1.231-2.871v2.824l2.032-.078,1.18-4.571.737,4.866,7.226-.148Z" transform="translate(-577.404 -311.118)" fill="#2f2e41"/>
  <path id="Path_1232" data-name="Path 1232" d="M899.23,818.356s3.153,1.484,4.081,2.04,4.637-.556,3.9,2.782-3.9,6.492-3.9,6.492-1.484,1.669-1.484,2.782-3.71,9.645-8.161,9.274-3.71-4.823-3.71-4.823l.927-4.823s1.855-8.161,2.226-7.976a8.1,8.1,0,0,1,1.3,1.484A8.228,8.228,0,0,0,899.23,818.356Z" transform="translate(-584.693 -530.564)" fill="#d0cde1"/>
  <path id="Path_1233" data-name="Path 1233" d="M1030.309,802.877s-3.153,1.484-4.081,2.04-4.637-.557-3.9,2.782,3.9,6.492,3.9,6.492,1.484,1.669,1.484,2.782,3.71,9.645,8.161,9.274,3.71-4.823,3.71-4.823l-.927-4.823s-1.855-8.161-2.226-7.976a8.1,8.1,0,0,0-1.3,1.484A8.229,8.229,0,0,1,1030.309,802.877Z" transform="translate(-669.527 -520.64)" fill="#d0cde1"/>
  <path id="Path_1234" data-name="Path 1234" d="M962.61,648.57v-1.764h-.392v-.784a1.372,1.372,0,0,0-1.372-1.372h-4.7a1.372,1.372,0,0,0-1.372,1.372v13.128a1.372,1.372,0,0,0,1.372,1.372h4.7a1.372,1.372,0,0,0,1.372-1.372v-8.23h.392v-1.763h-.392v-.588Z" transform="translate(-626.276 -419.202)" fill="#d0cde1"/>
  <circle id="Ellipse_120" data-name="Ellipse 120" cx="0.784" cy="0.784" r="0.784" transform="translate(331.631 228.584)" fill="#3f3d56"/>
  <path id="Path_1235" data-name="Path 1235" d="M903.21,584.372l-4,16.444a4.632,4.632,0,0,0,2,5.778c3.555,2.222,11.555,5.111,11.555,5.111s7.111,9.777,8,5.778-5.333-9.111-5.333-9.111l-10.888-6.888,4.222-11.555Z" transform="translate(-590.439 -380.558)" fill="#a0616a"/>
  <path id="Path_1236" data-name="Path 1236" d="M978.194,641.923s3.333-.444,3.111,3.333-4.666,4.222-4.666,4.222-2,8.444-4.889,6.888,1.556-10,1.556-10l3.778-2.889Z" transform="translate(-636.534 -417.443)" fill="#a0616a"/>
  <path id="Path_1237" data-name="Path 1237" d="M917.8,567.249l3.555-7.333-7.111,2.444a8.225,8.225,0,0,0-4.222,6.666c-.222,4.666,5.111,7.111,5.111,7.111s.889,6.666.444,7.555,0,4.444,0,4.444,8.555-2.333,12.777.556,7.666,1.222,7.666,1.222-.222-5.555,1.556-6.444,3.333-5.111,1.778-7.777c0,0,3.555.444,3.333-2.889a8.739,8.739,0,0,0-4.889-7.555c-2.889-1.333-3.208-1.546-3.208-1.546l4.1,7.546v2s-7.253-4.629-14.428-5.015a9.557,9.557,0,0,0-6.459,2.126h0Z" transform="translate(-597.581 -364.879)" fill="#2f2e41"/>
</svg>
