<svg xmlns="http://www.w3.org/2000/svg" width="436" height="263.34" viewBox="0 0 436 263.34">
  <g id="Telco_image_5" data-name="Telco image 5" transform="translate(0 0.355)">
    <path id="Path_1058" data-name="Path 1058" d="M457.093,389.291a71.349,71.349,0,0,1-6.191,11.892,51.457,51.457,0,0,1-3.75,5.154l-.042.049H27.8l.075-.053c.377-.294,2.592-2.086,6.037-5.154,2.471-2.2,5.573-5.063,9.055-8.5C71.45,364.661,126.161,298.351,80.6,237.607c-42.359-56.47,3.249-66.721,33.334-67.914a86.118,86.118,0,0,1,33.908,5.543,300.955,300.955,0,0,0,72.4,17.092q1.63.185,3.29.355a317.008,317.008,0,0,0,52.739.955h0c.517-.026,1.038-.064,1.562-.1a313.816,313.816,0,0,0,51.584-7.984c1.1-.268,2.181-.521,3.26-.755,56.455-13.062,108.5,31.455,95.49,81.768-4.814,18.6-3.592,38.443,12.451,54.486C466.85,347.249,463.654,373.041,457.093,389.291Z" transform="translate(-25.687 -144.028)" fill="#6c63ff" opacity="0.1"/>
    <ellipse id="Ellipse_51" data-name="Ellipse 51" cx="5.301" cy="4.048" rx="5.301" ry="4.048" transform="matrix(0.488, -0.873, 0.873, 0.488, 332.565, 104.973)" fill="#3f3d56"/>
    <ellipse id="Ellipse_52" data-name="Ellipse 52" cx="5.301" cy="4.048" rx="5.301" ry="4.048" transform="matrix(0.488, -0.873, 0.873, 0.488, 335.725, 99.318)" fill="#3f3d56"/>
    <ellipse id="Ellipse_53" data-name="Ellipse 53" cx="5.301" cy="4.048" rx="5.301" ry="4.048" transform="matrix(0.488, -0.873, 0.873, 0.488, 338.889, 93.664)" fill="#3f3d56"/>
    <ellipse id="Ellipse_54" data-name="Ellipse 54" cx="5.301" cy="4.048" rx="5.301" ry="4.048" transform="matrix(0.488, -0.873, 0.873, 0.488, 342.049, 88.005)" fill="#3f3d56"/>
    <ellipse id="Ellipse_55" data-name="Ellipse 55" cx="5.301" cy="4.048" rx="5.301" ry="4.048" transform="matrix(0.488, -0.873, 0.873, 0.488, 345.207, 82.353)" fill="#3f3d56"/>
    <ellipse id="Ellipse_56" data-name="Ellipse 56" cx="5.301" cy="4.048" rx="5.301" ry="4.048" transform="matrix(0.488, -0.873, 0.873, 0.488, 348.371, 76.697)" fill="#3f3d56"/>
    <ellipse id="Ellipse_57" data-name="Ellipse 57" cx="5.301" cy="4.048" rx="5.301" ry="4.048" transform="matrix(0.488, -0.873, 0.873, 0.488, 351.535, 71.043)" fill="#3f3d56"/>
    <path id="Path_1059" data-name="Path 1059" d="M979.593,138.272a19.768,19.768,0,0,0,2.4-1.2l-8.433-6.72,9.995,5.69a19.435,19.435,0,0,0,7.821-13.232l-17.382-.543,17.533-2.185a19.4,19.4,0,1,0-38.533,3.313,19.488,19.488,0,0,0-3.656,2.007l8.561,13-10.44-11.5a19.4,19.4,0,0,0-6.161,17.424A19.393,19.393,0,1,0,967.911,159.2a19.389,19.389,0,0,0,11.7-20.932Z" transform="translate(-587.09 -101.19)" fill="#6c63ff"/>
    <path id="Path_1060" data-name="Path 1060" d="M943.508,182.848A19.345,19.345,0,0,0,941.3,195.34a19.393,19.393,0,1,0,26.615,14.877C971.771,208.606,944.572,180.961,943.508,182.848Z" transform="translate(-587.09 -152.202)" opacity="0.1"/>
    <path id="Path_1061" data-name="Path 1061" d="M995.822,631.77h4.569a9.432,9.432,0,0,1,9.432,9.432v14H986.39v-14A9.432,9.432,0,0,1,995.822,631.77Z" transform="translate(-614.228 -393.626)" fill="#3f3d56"/>
    <path id="Path_1062" data-name="Path 1062" d="M995.822,631.77h4.569a9.432,9.432,0,0,1,9.432,9.432v14H986.39v-14A9.432,9.432,0,0,1,995.822,631.77Z" transform="translate(-614.228 -393.626)" opacity="0.1"/>
    <circle id="Ellipse_58" data-name="Ellipse 58" cx="1.875" cy="1.875" r="1.875" transform="translate(381.07 239.551)" fill="#3f3d56"/>
    <circle id="Ellipse_59" data-name="Ellipse 59" cx="1.875" cy="1.875" r="1.875" transform="translate(381.07 237.208)" fill="#3f3d56"/>
    <circle id="Ellipse_60" data-name="Ellipse 60" cx="1.875" cy="1.875" r="1.875" transform="translate(381.07 234.861)" fill="#3f3d56"/>
    <circle id="Ellipse_61" data-name="Ellipse 61" cx="1.875" cy="1.875" r="1.875" transform="translate(381.07 232.518)" fill="#3f3d56"/>
    <circle id="Ellipse_62" data-name="Ellipse 62" cx="1.875" cy="1.875" r="1.875" transform="translate(381.07 230.175)" fill="#3f3d56"/>
    <circle id="Ellipse_63" data-name="Ellipse 63" cx="1.875" cy="1.875" r="1.875" transform="translate(381.07 227.832)" fill="#3f3d56"/>
    <circle id="Ellipse_64" data-name="Ellipse 64" cx="1.875" cy="1.875" r="1.875" transform="translate(381.07 225.489)" fill="#3f3d56"/>
    <circle id="Ellipse_65" data-name="Ellipse 65" cx="1.875" cy="1.875" r="1.875" transform="translate(383.881 226.425)" fill="#3f3d56"/>
    <circle id="Ellipse_66" data-name="Ellipse 66" cx="1.875" cy="1.875" r="1.875" transform="translate(385.756 225.489)" fill="#3f3d56"/>
    <circle id="Ellipse_67" data-name="Ellipse 67" cx="1.875" cy="1.875" r="1.875" transform="translate(387.632 224.55)" fill="#3f3d56"/>
    <circle id="Ellipse_68" data-name="Ellipse 68" cx="1.875" cy="1.875" r="1.875" transform="translate(381.07 223.146)" fill="#3f3d56"/>
    <circle id="Ellipse_69" data-name="Ellipse 69" cx="1.875" cy="1.875" r="1.875" transform="translate(381.07 220.803)" fill="#3f3d56"/>
    <circle id="Ellipse_70" data-name="Ellipse 70" cx="1.875" cy="1.875" r="1.875" transform="translate(381.07 218.457)" fill="#3f3d56"/>
    <circle id="Ellipse_71" data-name="Ellipse 71" cx="1.875" cy="1.875" r="1.875" transform="translate(381.07 216.114)" fill="#3f3d56"/>
    <path id="Path_1063" data-name="Path 1063" d="M1031.771,652.607q-.7.1-1.4.147a10.775,10.775,0,0,0,1.207-1.237,7.923,7.923,0,0,0-1.132-2.2,3.9,3.9,0,0,1-1.509.479c-.464.068-.932.117-1.4.147a25.039,25.039,0,0,0,1.792-1.886,7.961,7.961,0,1,0,2.615,5.89,7.794,7.794,0,0,0-.121-1.37Z" transform="translate(-641.053 -440.662)" fill="#6c63ff"/>
    <path id="Path_1064" data-name="Path 1064" d="M1062.007,686.684a3.689,3.689,0,0,1-1.577.528c-.464.068-.932.117-1.4.147a13.722,13.722,0,0,0,1.389-1.441,4.84,4.84,0,0,0-1.2-.158,4.694,4.694,0,1,0,2.788.924Z" transform="translate(-665.026 -465.425)" fill="#6c63ff"/>
    <circle id="Ellipse_72" data-name="Ellipse 72" cx="1.875" cy="1.875" r="1.875" transform="translate(378.256 226.425)" fill="#3f3d56"/>
    <circle id="Ellipse_73" data-name="Ellipse 73" cx="1.875" cy="1.875" r="1.875" transform="translate(376.38 225.489)" fill="#3f3d56"/>
    <circle id="Ellipse_74" data-name="Ellipse 74" cx="1.875" cy="1.875" r="1.875" transform="translate(374.509 224.55)" fill="#3f3d56"/>
    <path id="Path_1065" data-name="Path 1065" d="M996.869,686.684a3.689,3.689,0,0,0,1.577.528c.464.068.932.117,1.4.147a13.733,13.733,0,0,1-1.388-1.441,4.843,4.843,0,0,1,1.2-.159,4.694,4.694,0,1,1-2.788.924Z" transform="translate(-627.948 -465.425)" fill="#6c63ff"/>
    <path id="Path_1066" data-name="Path 1066" d="M995.822,635.5h4.569a9.432,9.432,0,0,1,9.432,9.432v12.4a1.6,1.6,0,0,1-1.6,1.6H987.99a1.6,1.6,0,0,1-1.6-1.6v-12.4A9.432,9.432,0,0,1,995.822,635.5Z" transform="translate(-614.228 -395.949)" fill="#3f3d56"/>
    <g id="Group_1455" data-name="Group 1455" transform="translate(375.086 205.438)" opacity="0.1">
      <path id="Path_1067" data-name="Path 1067" d="M1057.147,664.88a6.115,6.115,0,0,1-.607.573,6.038,6.038,0,0,0,.641-.057C1057.174,665.223,1057.166,665.05,1057.147,664.88Z" transform="translate(-1041.373 -657.86)"/>
      <path id="Path_1068" data-name="Path 1068" d="M1049.09,656.362c.468-.03.936-.079,1.4-.147a4.392,4.392,0,0,0,1.219-.332,8.524,8.524,0,0,0-.656-1.083,2.841,2.841,0,0,1-.755.321A11.172,11.172,0,0,1,1049.09,656.362Z" transform="translate(-1036.733 -651.583)"/>
      <path id="Path_1069" data-name="Path 1069" d="M1017.166,655.079a7.953,7.953,0,0,1,12.262-6.7l.121-.128a7.961,7.961,0,1,0-10.5,11.972A7.923,7.923,0,0,1,1017.166,655.079Z" transform="translate(-1016.34 -646.275)"/>
    </g>
    <g id="Group_1456" data-name="Group 1456" transform="translate(389.514 220.335)" opacity="0.1">
      <path id="Path_1070" data-name="Path 1070" d="M1066.48,689.806c.468-.034.936-.083,1.4-.151a3.685,3.685,0,0,0,1.577-.524,4.675,4.675,0,0,1,1.887,3.32,4.408,4.408,0,0,0,.026-.5,4.675,4.675,0,0,0-1.886-3.773,3.689,3.689,0,0,1-1.577.528l-.377.045A9.284,9.284,0,0,1,1066.48,689.806Z" transform="translate(-1061.99 -687.267)"/>
      <path id="Path_1071" data-name="Path 1071" d="M1059.266,686.7a2.151,2.151,0,0,1,.468.034c.245-.26.487-.539.732-.811a4.841,4.841,0,0,0-1.2-.158,4.686,4.686,0,0,0-4.686,4.686,3.178,3.178,0,0,0,.023.468A4.69,4.69,0,0,1,1059.266,686.7Z" transform="translate(-1054.58 -685.76)"/>
    </g>
    <g id="Group_1457" data-name="Group 1457" transform="translate(366.993 220.335)" opacity="0.1">
      <path id="Path_1072" data-name="Path 1072" d="M999.78,689.806c-.468-.034-.936-.083-1.4-.151a3.686,3.686,0,0,1-1.577-.524,4.675,4.675,0,0,0-1.886,3.32,4.352,4.352,0,0,1-.026-.5,4.675,4.675,0,0,1,1.886-3.773,3.689,3.689,0,0,0,1.577.528l.377.045a9.624,9.624,0,0,0,1.049,1.053Z" transform="translate(-994.89 -687.267)"/>
      <path id="Path_1073" data-name="Path 1073" d="M1005.37,686.7a2.151,2.151,0,0,0-.468.034c-.245-.26-.487-.539-.732-.811a4.843,4.843,0,0,1,1.2-.158,4.686,4.686,0,0,1,4.686,4.686,3.2,3.2,0,0,1-.023.468A4.69,4.69,0,0,0,1005.37,686.7Z" transform="translate(-1000.669 -685.76)"/>
    </g>
    <path id="Path_1074" data-name="Path 1074" d="M41.432,539H77.479a9.432,9.432,0,0,1,9.432,9.432v45.461H32V548.432A9.432,9.432,0,0,1,41.432,539Z" transform="translate(-19.926 -335.858)" fill="#3f3d56"/>
    <path id="Path_1075" data-name="Path 1075" d="M41.432,539H77.479a9.432,9.432,0,0,1,9.432,9.432v45.461H32V548.432A9.432,9.432,0,0,1,41.432,539Z" transform="translate(-19.926 -335.858)" opacity="0.1"/>
    <circle id="Ellipse_75" data-name="Ellipse 75" cx="4.392" cy="4.392" r="4.392" transform="translate(32.949 206.421)" fill="#3f3d56"/>
    <circle id="Ellipse_76" data-name="Ellipse 76" cx="4.392" cy="4.392" r="4.392" transform="translate(32.949 200.931)" fill="#3f3d56"/>
    <circle id="Ellipse_77" data-name="Ellipse 77" cx="4.392" cy="4.392" r="4.392" transform="translate(32.949 195.438)" fill="#3f3d56"/>
    <circle id="Ellipse_78" data-name="Ellipse 78" cx="4.392" cy="4.392" r="4.392" transform="translate(32.949 189.948)" fill="#3f3d56"/>
    <circle id="Ellipse_79" data-name="Ellipse 79" cx="4.392" cy="4.392" r="4.392" transform="translate(32.949 184.454)" fill="#3f3d56"/>
    <circle id="Ellipse_80" data-name="Ellipse 80" cx="4.392" cy="4.392" r="4.392" transform="translate(32.949 178.965)" fill="#3f3d56"/>
    <circle id="Ellipse_81" data-name="Ellipse 81" cx="4.392" cy="4.392" r="4.392" transform="translate(32.949 173.475)" fill="#3f3d56"/>
    <circle id="Ellipse_82" data-name="Ellipse 82" cx="4.392" cy="4.392" r="4.392" transform="translate(39.537 175.671)" fill="#3f3d56"/>
    <circle id="Ellipse_83" data-name="Ellipse 83" cx="4.392" cy="4.392" r="4.392" transform="translate(43.929 173.475)" fill="#3f3d56"/>
    <circle id="Ellipse_84" data-name="Ellipse 84" cx="4.392" cy="4.392" r="4.392" transform="translate(48.324 171.275)" fill="#3f3d56"/>
    <circle id="Ellipse_85" data-name="Ellipse 85" cx="4.392" cy="4.392" r="4.392" transform="translate(32.949 167.982)" fill="#3f3d56"/>
    <circle id="Ellipse_86" data-name="Ellipse 86" cx="4.392" cy="4.392" r="4.392" transform="translate(32.949 162.492)" fill="#3f3d56"/>
    <circle id="Ellipse_87" data-name="Ellipse 87" cx="4.392" cy="4.392" r="4.392" transform="translate(32.949 156.999)" fill="#3f3d56"/>
    <circle id="Ellipse_88" data-name="Ellipse 88" cx="4.392" cy="4.392" r="4.392" transform="translate(32.949 151.509)" fill="#3f3d56"/>
    <path id="Path_1076" data-name="Path 1076" d="M108.432,451.912q-1.634.238-3.282.347a25.572,25.572,0,0,0,2.826-2.9,18.62,18.62,0,0,0-2.618-5.154,8.957,8.957,0,0,1-3.516,1.132c-1.087.158-2.185.275-3.282.351a59.184,59.184,0,0,0,4.2-4.377A18.71,18.71,0,1,0,108.6,451.9Z" transform="translate(-52.879 -310.179)" fill="#6c63ff"/>
    <path id="Path_1077" data-name="Path 1077" d="M179.4,531.722a8.646,8.646,0,0,1-3.694,1.23c-1.09.162-2.185.275-3.282.351a30.894,30.894,0,0,0,3.252-3.373,10.991,10.991,0,1,0,3.724,1.792Z" transform="translate(-109.168 -368.159)" fill="#6c63ff"/>
    <circle id="Ellipse_89" data-name="Ellipse 89" cx="4.392" cy="4.392" r="4.392" transform="translate(26.358 175.671)" fill="#3f3d56"/>
    <circle id="Ellipse_90" data-name="Ellipse 90" cx="4.392" cy="4.392" r="4.392" transform="translate(21.966 173.475)" fill="#3f3d56"/>
    <circle id="Ellipse_91" data-name="Ellipse 91" cx="4.392" cy="4.392" r="4.392" transform="translate(17.575 171.275)" fill="#3f3d56"/>
    <path id="Path_1078" data-name="Path 1078" d="M26.658,531.722a8.645,8.645,0,0,0,3.7,1.23c1.087.162,2.181.275,3.279.351a30.893,30.893,0,0,1-3.252-3.373,10.991,10.991,0,1,1-3.724,1.792Z" transform="translate(-22.206 -368.159)" fill="#6c63ff"/>
    <path id="Path_1079" data-name="Path 1079" d="M41.432,547.69H77.479a9.432,9.432,0,0,1,9.432,9.432v43.883a1.6,1.6,0,0,1-1.6,1.6h-51.7a1.6,1.6,0,0,1-1.607-1.6V557.122A9.432,9.432,0,0,1,41.432,547.69Z" transform="translate(-19.926 -341.269)" fill="#3f3d56"/>
    <g id="Group_1458" data-name="Group 1458" transform="translate(18.931 126.488)" opacity="0.1">
      <path id="Path_1080" data-name="Path 1080" d="M167.979,480.61a14.19,14.19,0,0,1-1.419,1.343c.5-.034,1.007-.079,1.509-.128C168.05,481.417,168.024,481.01,167.979,480.61Z" transform="translate(-131.024 -464.166)"/>
      <path id="Path_1081" data-name="Path 1081" d="M149.1,460.688c1.1-.075,2.192-.189,3.279-.351a10.456,10.456,0,0,0,2.86-.755,19.071,19.071,0,0,0-1.539-2.543,6.482,6.482,0,0,1-1.758.755,26.115,26.115,0,0,1-2.841,2.894Z" transform="translate(-120.152 -449.488)"/>
      <path id="Path_1082" data-name="Path 1082" d="M74.308,457.654a18.635,18.635,0,0,1,28.731-15.7c.094-.1.189-.208.283-.3a18.653,18.653,0,1,0-24.59,28.054,18.567,18.567,0,0,1-4.424-12.052Z" transform="translate(-72.374 -437.025)"/>
    </g>
    <g id="Group_1459" data-name="Group 1459" transform="translate(52.708 161.401)" opacity="0.1">
      <path id="Path_1083" data-name="Path 1083" d="M189.85,539.067q1.645-.106,3.283-.351a8.63,8.63,0,0,0,3.694-1.23,10.964,10.964,0,0,1,4.4,7.776,11.49,11.49,0,0,0,.06-1.158,10.942,10.942,0,0,0-4.448-8.814,8.647,8.647,0,0,1-3.694,1.23c-.291.041-.577.075-.864.109A21.746,21.746,0,0,1,189.85,539.067Z" transform="translate(-179.304 -533.128)"/>
      <path id="Path_1084" data-name="Path 1084" d="M172.879,531.748a10.587,10.587,0,0,1,1.1.076c.573-.611,1.132-1.26,1.709-1.886a10.942,10.942,0,0,0-13.79,10.606c0,.377.019.755.053,1.1A10.983,10.983,0,0,1,172.879,531.748Z" transform="translate(-161.9 -529.56)"/>
    </g>
    <g id="Group_1460" data-name="Group 1460" transform="translate(0 161.401)" opacity="0.1">
      <path id="Path_1085" data-name="Path 1085" d="M33.625,539.067q-1.645-.106-3.279-.351a8.545,8.545,0,0,1-3.7-1.23,10.964,10.964,0,0,0-4.388,7.776,11.487,11.487,0,0,1-.06-1.158,10.942,10.942,0,0,1,4.452-8.814,8.646,8.646,0,0,0,3.7,1.23c.287.041.573.075.86.109a22.064,22.064,0,0,0,2.415,2.437Z" transform="translate(-22.2 -533.128)"/>
      <path id="Path_1086" data-name="Path 1086" d="M46.671,531.748a10.587,10.587,0,0,0-1.1.076c-.573-.611-1.132-1.26-1.709-1.886a10.942,10.942,0,0,1,13.79,10.606,7.411,7.411,0,0,1-.053,1.1A10.983,10.983,0,0,0,46.671,531.748Z" transform="translate(-35.688 -529.56)"/>
    </g>
    <path id="Path_1087" data-name="Path 1087" d="M558.553,640.1l-73.573-.943.215-1.886,3.558-31.127h64.612l4.754,31.127.362,2.358Z" transform="translate(-301.998 -377.666)" fill="#d0d2d5"/>
    <path id="Path_1088" data-name="Path 1088" d="M558.481,691H521.766l-36.786-.472.215-1.886h72.924Z" transform="translate(-301.998 -429.039)" opacity="0.1"/>
    <rect id="Rectangle_2134" data-name="Rectangle 2134" width="97.626" height="2.358" transform="translate(170.719 260.072)" fill="#d0d2d5"/>
    <path id="Path_1089" data-name="Path 1089" d="M510.159,201.623a6.142,6.142,0,0,0-6.108-6.173H231.412a6.142,6.142,0,0,0-6.112,6.173V366.879H510.159Z" transform="translate(-148.671 -160.107)" fill="#444053"/>
    <path id="Path_1090" data-name="Path 1090" d="M225.3,645.45v19.359a6.109,6.109,0,0,0,6.112,6.127H504.051a6.108,6.108,0,0,0,6.108-6.108V645.45Z" transform="translate(-148.671 -440.323)" fill="#d0d2d5"/>
    <rect id="Rectangle_2135" data-name="Rectangle 2135" width="262.693" height="148.561" transform="translate(88.42 45.718)" fill="#6c63ff" opacity="0.1"/>
    <path id="Path_1091" data-name="Path 1091" d="M595.966,672.351a6.372,6.372,0,0,0,5.01-2.43h0a6.862,6.862,0,0,0,.494-.728l-3.494-.574,3.773.026a6.35,6.35,0,0,0,.121-5.045l-5.067,2.641,4.675-3.433a6.365,6.365,0,1,0-10.515,7.093h0A6.365,6.365,0,0,0,595.966,672.351Z" transform="translate(-375.493 -449.099)" fill="#6c63ff"/>
    <path id="Path_1092" data-name="Path 1092" d="M601.23,611.76l29.35,29.478-4.5-29.478Z" transform="translate(-374.388 -381.166)" opacity="0.1"/>
    <rect id="Rectangle_2136" data-name="Rectangle 2136" width="202.797" height="107.684" transform="translate(95.732 65.949)" fill="#fff"/>
    <rect id="Rectangle_2137" data-name="Rectangle 2137" width="56.564" height="2.932" transform="translate(107.043 94.02)" fill="#6c63ff" opacity="0.1"/>
    <rect id="Rectangle_2138" data-name="Rectangle 2138" width="5.448" height="15.503" transform="translate(112.072 78.517)" fill="#6c63ff" opacity="0.1"/>
    <rect id="Rectangle_2139" data-name="Rectangle 2139" width="5.448" height="15.503" transform="translate(120.033 78.517)" fill="#6c63ff" opacity="0.1"/>
    <rect id="Rectangle_2140" data-name="Rectangle 2140" width="5.448" height="15.503" transform="translate(127.994 78.517)" fill="#6c63ff" opacity="0.1"/>
    <rect id="Rectangle_2141" data-name="Rectangle 2141" width="5.448" height="15.503" transform="translate(135.955 78.517)" fill="#6c63ff" opacity="0.1"/>
    <rect id="Rectangle_2142" data-name="Rectangle 2142" width="5.448" height="15.503" transform="translate(143.916 78.517)" fill="#6c63ff" opacity="0.1"/>
    <rect id="Rectangle_2143" data-name="Rectangle 2143" width="5.448" height="15.503" transform="translate(151.877 78.517)" fill="#6c63ff" opacity="0.1"/>
    <rect id="Rectangle_2144" data-name="Rectangle 2144" width="5.448" height="1.675" transform="translate(112.072 81.452)" fill="#6c63ff" opacity="0.1"/>
    <rect id="Rectangle_2145" data-name="Rectangle 2145" width="5.448" height="1.675" transform="translate(120.033 81.452)" fill="#6c63ff" opacity="0.1"/>
    <rect id="Rectangle_2146" data-name="Rectangle 2146" width="5.448" height="1.675" transform="translate(127.994 81.452)" fill="#6c63ff" opacity="0.1"/>
    <rect id="Rectangle_2147" data-name="Rectangle 2147" width="5.448" height="1.675" transform="translate(135.955 81.452)" fill="#6c63ff" opacity="0.1"/>
    <rect id="Rectangle_2148" data-name="Rectangle 2148" width="5.448" height="1.675" transform="translate(143.916 81.452)" fill="#6c63ff" opacity="0.1"/>
    <rect id="Rectangle_2149" data-name="Rectangle 2149" width="5.448" height="1.675" transform="translate(151.877 81.452)" fill="#6c63ff" opacity="0.1"/>
    <rect id="Rectangle_2150" data-name="Rectangle 2150" width="5.448" height="1.675" transform="translate(112.072 88.994)" fill="#6c63ff" opacity="0.1"/>
    <rect id="Rectangle_2151" data-name="Rectangle 2151" width="5.448" height="1.675" transform="translate(120.033 88.994)" fill="#6c63ff" opacity="0.1"/>
    <rect id="Rectangle_2152" data-name="Rectangle 2152" width="5.448" height="1.675" transform="translate(127.994 88.994)" fill="#6c63ff" opacity="0.1"/>
    <rect id="Rectangle_2153" data-name="Rectangle 2153" width="5.448" height="1.675" transform="translate(135.955 88.994)" fill="#6c63ff" opacity="0.1"/>
    <rect id="Rectangle_2154" data-name="Rectangle 2154" width="5.448" height="1.675" transform="translate(143.916 88.994)" fill="#6c63ff" opacity="0.1"/>
    <rect id="Rectangle_2155" data-name="Rectangle 2155" width="5.448" height="1.675" transform="translate(151.877 88.994)" fill="#6c63ff" opacity="0.1"/>
    <rect id="Rectangle_2156" data-name="Rectangle 2156" width="56.564" height="2.932" transform="translate(231.068 101.562)" fill="#6c63ff" opacity="0.1"/>
    <rect id="Rectangle_2157" data-name="Rectangle 2157" width="5.448" height="15.503" transform="translate(236.098 86.059)" fill="#6c63ff" opacity="0.1"/>
    <rect id="Rectangle_2158" data-name="Rectangle 2158" width="5.448" height="15.503" transform="translate(244.059 86.059)" fill="#6c63ff" opacity="0.1"/>
    <rect id="Rectangle_2159" data-name="Rectangle 2159" width="5.448" height="15.503" transform="translate(252.02 86.059)" fill="#6c63ff" opacity="0.1"/>
    <rect id="Rectangle_2160" data-name="Rectangle 2160" width="5.448" height="15.503" transform="translate(259.98 86.059)" fill="#6c63ff" opacity="0.1"/>
    <rect id="Rectangle_2161" data-name="Rectangle 2161" width="5.448" height="15.503" transform="translate(267.941 86.059)" fill="#6c63ff" opacity="0.1"/>
    <rect id="Rectangle_2162" data-name="Rectangle 2162" width="5.448" height="15.503" transform="translate(275.902 86.059)" fill="#6c63ff" opacity="0.1"/>
    <rect id="Rectangle_2163" data-name="Rectangle 2163" width="5.448" height="1.675" transform="translate(236.098 88.994)" fill="#6c63ff" opacity="0.1"/>
    <rect id="Rectangle_2164" data-name="Rectangle 2164" width="5.448" height="1.675" transform="translate(244.059 88.994)" fill="#6c63ff" opacity="0.1"/>
    <rect id="Rectangle_2165" data-name="Rectangle 2165" width="5.448" height="1.675" transform="translate(252.02 88.994)" fill="#6c63ff" opacity="0.1"/>
    <rect id="Rectangle_2166" data-name="Rectangle 2166" width="5.448" height="1.675" transform="translate(259.98 88.994)" fill="#6c63ff" opacity="0.1"/>
    <rect id="Rectangle_2167" data-name="Rectangle 2167" width="5.448" height="1.675" transform="translate(267.941 88.994)" fill="#6c63ff" opacity="0.1"/>
    <rect id="Rectangle_2168" data-name="Rectangle 2168" width="5.448" height="1.675" transform="translate(275.902 88.994)" fill="#6c63ff" opacity="0.1"/>
    <rect id="Rectangle_2169" data-name="Rectangle 2169" width="5.448" height="1.675" transform="translate(236.098 96.537)" fill="#6c63ff" opacity="0.1"/>
    <rect id="Rectangle_2170" data-name="Rectangle 2170" width="5.448" height="1.675" transform="translate(244.059 96.537)" fill="#6c63ff" opacity="0.1"/>
    <rect id="Rectangle_2171" data-name="Rectangle 2171" width="5.448" height="1.675" transform="translate(252.02 96.537)" fill="#6c63ff" opacity="0.1"/>
    <rect id="Rectangle_2172" data-name="Rectangle 2172" width="5.448" height="1.675" transform="translate(259.98 96.537)" fill="#6c63ff" opacity="0.1"/>
    <rect id="Rectangle_2173" data-name="Rectangle 2173" width="5.448" height="1.675" transform="translate(267.941 96.537)" fill="#6c63ff" opacity="0.1"/>
    <rect id="Rectangle_2174" data-name="Rectangle 2174" width="5.448" height="1.675" transform="translate(275.902 96.537)" fill="#6c63ff" opacity="0.1"/>
    <rect id="Rectangle_2175" data-name="Rectangle 2175" width="56.564" height="2.932" transform="translate(231.068 122.932)" fill="#6c63ff" opacity="0.1"/>
    <rect id="Rectangle_2176" data-name="Rectangle 2176" width="5.448" height="15.503" transform="translate(236.098 107.429)" fill="#6c63ff" opacity="0.1"/>
    <rect id="Rectangle_2177" data-name="Rectangle 2177" width="5.448" height="15.503" transform="translate(244.059 107.429)" fill="#6c63ff" opacity="0.1"/>
    <rect id="Rectangle_2178" data-name="Rectangle 2178" width="5.448" height="15.503" transform="translate(252.02 107.429)" fill="#6c63ff" opacity="0.1"/>
    <rect id="Rectangle_2179" data-name="Rectangle 2179" width="5.448" height="15.503" transform="translate(259.98 107.429)" fill="#6c63ff" opacity="0.1"/>
    <rect id="Rectangle_2180" data-name="Rectangle 2180" width="5.448" height="15.503" transform="translate(267.941 107.429)" fill="#6c63ff" opacity="0.1"/>
    <rect id="Rectangle_2181" data-name="Rectangle 2181" width="5.448" height="15.503" transform="translate(275.902 107.429)" fill="#6c63ff" opacity="0.1"/>
    <rect id="Rectangle_2182" data-name="Rectangle 2182" width="5.448" height="1.675" transform="translate(236.098 110.361)" fill="#6c63ff" opacity="0.1"/>
    <rect id="Rectangle_2183" data-name="Rectangle 2183" width="5.448" height="1.675" transform="translate(244.059 110.361)" fill="#6c63ff" opacity="0.1"/>
    <rect id="Rectangle_2184" data-name="Rectangle 2184" width="5.448" height="1.675" transform="translate(252.02 110.361)" fill="#6c63ff" opacity="0.1"/>
    <rect id="Rectangle_2185" data-name="Rectangle 2185" width="5.448" height="1.675" transform="translate(259.98 110.361)" fill="#6c63ff" opacity="0.1"/>
    <rect id="Rectangle_2186" data-name="Rectangle 2186" width="5.448" height="1.675" transform="translate(267.941 110.361)" fill="#6c63ff" opacity="0.1"/>
    <rect id="Rectangle_2187" data-name="Rectangle 2187" width="5.448" height="1.675" transform="translate(275.902 110.361)" fill="#6c63ff" opacity="0.1"/>
    <rect id="Rectangle_2188" data-name="Rectangle 2188" width="5.448" height="1.675" transform="translate(236.098 117.903)" fill="#6c63ff" opacity="0.1"/>
    <rect id="Rectangle_2189" data-name="Rectangle 2189" width="5.448" height="1.675" transform="translate(244.059 117.903)" fill="#6c63ff" opacity="0.1"/>
    <rect id="Rectangle_2190" data-name="Rectangle 2190" width="5.448" height="1.675" transform="translate(252.02 117.903)" fill="#6c63ff" opacity="0.1"/>
    <rect id="Rectangle_2191" data-name="Rectangle 2191" width="5.448" height="1.675" transform="translate(259.98 117.903)" fill="#6c63ff" opacity="0.1"/>
    <rect id="Rectangle_2192" data-name="Rectangle 2192" width="5.448" height="1.675" transform="translate(267.941 117.903)" fill="#6c63ff" opacity="0.1"/>
    <rect id="Rectangle_2193" data-name="Rectangle 2193" width="5.448" height="1.675" transform="translate(275.902 117.903)" fill="#6c63ff" opacity="0.1"/>
    <path id="Path_1093" data-name="Path 1093" d="M392.592,399.167a14.936,14.936,0,0,1-1.155-1.7l8.146-1.336-8.825.072a14.877,14.877,0,0,1-.283-11.764l11.817,6.131-10.9-8.01a14.847,14.847,0,1,1,24.524,16.6,14.838,14.838,0,0,1,1.7,2.7l-10.564,5.49,11.27-3.773a14.839,14.839,0,0,1-2.392,13.937,14.847,14.847,0,1,1-23.336,0,14.847,14.847,0,0,1,0-18.355Z" transform="translate(-250.856 -271.99)" fill="#6c63ff" opacity="0.1"/>
    <path id="Path_1094" data-name="Path 1094" d="M419.126,462.818a14.783,14.783,0,0,1-3.177,9.176,14.847,14.847,0,1,1-23.336,0C390.625,469.47,419.126,461.151,419.126,462.818Z" transform="translate(-250.878 -326.462)" fill="#6c63ff" opacity="0.1"/>
    <path id="Path_1095" data-name="Path 1095" d="M425.946,554.67c.026.042.045.083.072.125h-5.041c.026-.042.045-.083.072-.125a4.905,4.905,0,0,1-.649-2.483,5.113,5.113,0,0,1,.306-1.747h0c.279.045.626.094,1.026.136a17.676,17.676,0,0,0,3.516,0c.332-.034.683-.083,1.038-.136a.239.239,0,0,1,0,.026,5.033,5.033,0,0,1,.3,1.721A4.9,4.9,0,0,1,425.946,554.67Z" transform="translate(-270.16 -381.16)" fill="#3f3d56" opacity="0.2"/>
    <path id="Path_1096" data-name="Path 1096" d="M321.564,471.495H293.531c-.064-.162-.121-.332-.17-.5a14.756,14.756,0,0,1,.328-9.7,14.843,14.843,0,0,1-5.418-17.541,15.349,15.349,0,0,1-1.607-1.283l7.387-3.682-8.395,2.664a14.862,14.862,0,0,1-3.743-11.16l13.1,2.366-12.775-4.437a14.847,14.847,0,1,1,28.327,8.636,15.123,15.123,0,0,1,2.418,2.086L304.5,447.31l9.655-6.942a14.85,14.85,0,0,1,1.826,14.028A14.85,14.85,0,0,1,321.564,471.495Z" transform="translate(-183.892 -297.854)" fill="#6c63ff" opacity="0.1"/>
    <path id="Path_1097" data-name="Path 1097" d="M339.445,517.584H311.412c-.064-.162-.121-.332-.17-.5a14.756,14.756,0,0,1,.328-9.7c-2.641-1.83,22.132-18.19,22.638-16.6a14.816,14.816,0,0,1-.328,9.708A14.85,14.85,0,0,1,339.445,517.584Z" transform="translate(-201.773 -343.943)" fill="#6c63ff" opacity="0.1"/>
    <path id="Path_1098" data-name="Path 1098" d="M647.552,471.632a14.775,14.775,0,0,1-7.433,6.248,15.321,15.321,0,0,1,.064,3.2l-11.892-.713L639.9,482.9a14.881,14.881,0,0,1-5.731,8.844H617.987v.419H601.51c.034-.143.068-.283.106-.419a14.9,14.9,0,0,1,9.055-10.078,14.858,14.858,0,0,1,9.432-15.756,14.852,14.852,0,0,1-.125-2.049l7.678,3.018-7.591-4.46a14.88,14.88,0,0,1,5.776-10.24l7,11.319L627.6,451.051a14.843,14.843,0,0,1,19.951,20.593Z" transform="translate(-382.938 -318.105)" fill="#6c63ff" opacity="0.1"/>
    <path id="Path_1099" data-name="Path 1099" d="M638.13,539.715a14.636,14.636,0,0,1-3.958,4.358H617.987v.419H601.51c.034-.143.068-.283.106-.419A14.9,14.9,0,0,1,610.671,534c-.14-1.083,3.06-.936,7.32-.219C626.317,535.172,638.7,538.768,638.13,539.715Z" transform="translate(-382.938 -370.432)" fill="#6c63ff" opacity="0.1"/>
    <path id="Path_1100" data-name="Path 1100" d="M506.468,444.084s2.019,11.006-2.509,14.594,3.826,25.12,17.7,22.611,19.5-20.578,19.5-20.578-13.877-2.867-8.734-17.461Z" transform="translate(-321.422 -314.413)" fill="#efb7b9"/>
    <path id="Path_1101" data-name="Path 1101" d="M506.468,444.084s2.019,11.006-2.509,14.594,3.826,25.12,17.7,22.611,19.5-20.578,19.5-20.578-13.877-2.867-8.734-17.461Z" transform="translate(-321.422 -314.413)" opacity="0.1"/>
    <circle id="Ellipse_92" data-name="Ellipse 92" cx="22.966" cy="22.966" r="22.966" transform="translate(174.342 91.813)" fill="#efb7b9"/>
    <path id="Path_1102" data-name="Path 1102" d="M520.017,494.611v15.613H444.18v-14.9a9.625,9.625,0,0,1,5.871-8.859l2.177-.924c5.5-2.343,12.183-5.252,14.367-6.463a3.6,3.6,0,0,0,.672-.434c1.2-1.2.958.358.958.358s-.034.294-.057.807c-.128,3.513.377,17.329,16.563,16.178,15.794-1.132,16.488-11.787,16.344-14.922A7.788,7.788,0,0,0,501,480.2a21.652,21.652,0,0,1,3.2,1.041c3.309,1.219,8.172,3.181,9.482,4.105.407.283.9.585,1.438.883a9.568,9.568,0,0,1,4.9,8.384Z" transform="translate(-284.968 -336.171)" fill="#6c63ff"/>
    <path id="Path_1103" data-name="Path 1103" d="M541.169,481.258c-1.336,6.2-5.531,17.8-20.665,18.11-16.114.317-17.042-15.711-16.944-20.257a3.489,3.489,0,0,0,.675-.438c1.2-1.2.958.358.958.358s-2.034,18.3,16.507,16.978,16.269-15.79,16.269-15.79A18.921,18.921,0,0,1,541.169,481.258Z" transform="translate(-321.941 -336.19)" opacity="0.1"/>
    <path id="Path_1104" data-name="Path 1104" d="M470.592,347.008a3.97,3.97,0,0,1,4.15,1.509,7.42,7.42,0,0,1,1.06,3.939c1,.211,1.562-.921,1.653-1.77.377-3.475.4-7.014,1.562-10.364a12.4,12.4,0,0,1,7.629-7.885,8.814,8.814,0,0,1,4.15-.4c.826.14,1.607.426,2.434.562,2.856.472,5.969-.883,8.651.06A6.818,6.818,0,0,1,505.413,336a7.278,7.278,0,0,0,1.373,2c1.132,1.019,2.928,1.287,4.558,1.607s3.418.872,4.116,2.132c.63,1.132.166,2.452-.045,3.69a9.01,9.01,0,0,0,.932,5.7c.3.573.913,1.222,1.634,1.038a1.441,1.441,0,0,0,.781-.634c1.887-2.641,1.826-6.067,4.177-8.425.789-.789,1.8-1.407,2.569-2.211a4.973,4.973,0,0,0,1.332-4.528c-.423-1.815-1.886-3.328-3.045-4.9a19.243,19.243,0,0,1-3.264-6.772,1.207,1.207,0,0,1,0-.883,2.366,2.366,0,0,1,.834-.683,3.154,3.154,0,0,0,1.083-4.03,6.65,6.65,0,0,0-3.75-3,24.975,24.975,0,0,0-5.154-1.132,2.8,2.8,0,0,1-2.867-1.415c-.158-.411-.158-.856-.321-1.268a2.906,2.906,0,0,0-2.185-1.539,6.414,6.414,0,0,0-2.95.208c-1.087.306-2.347.755-3.294.234-.5-.283-.777-.8-1.313-1.026-1.087-.464-2.234.472-3.018,1.245a7.433,7.433,0,0,1-2.728,1.83,4.05,4.05,0,0,1-3.373-.223,10.634,10.634,0,0,1-1.732-1.86,6.515,6.515,0,0,0-4.1-1.679,14.48,14.48,0,0,0-4.626.506,28.01,28.01,0,0,0-8.131,3.4,8.731,8.731,0,0,0-3.117,2.9,6.577,6.577,0,0,0-.7,2.988,10.8,10.8,0,0,0,3.773,8.95c-1.713.717-2.294,2.471-2.694,4.03a22.1,22.1,0,0,0-1.045,7.546,16.577,16.577,0,0,1,.287,3.92,8.471,8.471,0,0,0-.257,1.886,1.8,1.8,0,0,0,1.437,1.422Z" transform="translate(-300.469 -231.093)" fill="#454b69"/>
    <g id="Group_1461" data-name="Group 1461" transform="translate(168.607 86.704)" opacity="0.1">
      <path id="Path_1105" data-name="Path 1105" d="M602.805,378.18a5.412,5.412,0,0,1-.992,1.46c-.755.8-1.781,1.422-2.569,2.215-2.351,2.354-2.3,5.792-4.177,8.425a1.434,1.434,0,0,1-.781.63c-.721.185-1.332-.464-1.634-1.038a9.168,9.168,0,0,1-.819-2.207q-.06.287-.113.577a9.01,9.01,0,0,0,.932,5.7c.3.573.913,1.222,1.634,1.038a1.441,1.441,0,0,0,.781-.634c1.886-2.641,1.826-6.067,4.177-8.425.789-.789,1.8-1.407,2.569-2.211a4.973,4.973,0,0,0,1.332-4.528A5.442,5.442,0,0,0,602.805,378.18Z" transform="translate(-545.374 -360.598)"/>
      <path id="Path_1106" data-name="Path 1106" d="M606.2,333.941a2.317,2.317,0,0,0-.834.679,1.207,1.207,0,0,0,0,.883,18.443,18.443,0,0,0,.834,2.509h0a3.154,3.154,0,0,0,1.068-4.071,4.131,4.131,0,0,0-.377-.641A3.147,3.147,0,0,1,606.2,333.941Z" transform="translate(-553.892 -332.651)"/>
      <path id="Path_1107" data-name="Path 1107" d="M472.865,337.956a10.244,10.244,0,0,1-3.6-6.376,9.055,9.055,0,0,0-.166,1.509,11.481,11.481,0,0,0,1.811,6.791A3.859,3.859,0,0,1,472.865,337.956Z" transform="translate(-469.081 -331.58)"/>
      <path id="Path_1108" data-name="Path 1108" d="M515.551,371.824c.211-1.238.675-2.554.045-3.69-.7-1.26-2.483-1.815-4.116-2.132s-3.418-.589-4.558-1.607a7.279,7.279,0,0,1-1.373-2,6.763,6.763,0,0,0-3.531-3.335c-2.683-.943-5.8.411-8.651-.06-.826-.136-1.607-.423-2.434-.562a8.814,8.814,0,0,0-4.15.377,12.384,12.384,0,0,0-7.629,7.886c-1.166,3.358-1.192,6.889-1.562,10.364-.091.849-.653,1.981-1.653,1.77a7.489,7.489,0,0,0-1.06-3.939,3.942,3.942,0,0,0-4.15-1.509,2,2,0,0,1-1.162-.755,6.344,6.344,0,0,1-.023,1.509,8.47,8.47,0,0,0-.257,1.887,1.8,1.8,0,0,0,1.434,1.426,3.97,3.97,0,0,1,4.15,1.509,7.42,7.42,0,0,1,1.06,3.939c1,.211,1.562-.921,1.653-1.77.377-3.475.4-7.014,1.562-10.364a12.4,12.4,0,0,1,7.629-7.886,8.814,8.814,0,0,1,4.15-.4c.826.14,1.607.426,2.434.562,2.856.472,5.969-.883,8.651.06a6.819,6.819,0,0,1,3.531,3.335,7.279,7.279,0,0,0,1.373,2c1.132,1.019,2.928,1.287,4.558,1.607s3.286.834,4.033,2C515.524,371.99,515.536,371.907,515.551,371.824Z" transform="translate(-469.204 -348.246)"/>
      <path id="Path_1109" data-name="Path 1109" d="M469.445,384.474a10.614,10.614,0,0,0-.181-3.064,13.659,13.659,0,0,0-.106,3.211c.023.275.06.547.1.823C469.3,385.119,469.385,384.8,469.445,384.474Z" transform="translate(-469.099 -362.609)"/>
    </g>
    <rect id="Rectangle_2194" data-name="Rectangle 2194" width="33.957" height="23.562" transform="translate(308.905 150.203)" fill="#fff"/>
    <path id="Path_1110" data-name="Path 1110" d="M901.29,536.48a4.192,4.192,0,0,1-2.117,1.777,4.318,4.318,0,0,1,.019.909l-3.4-.2,3.305.724a4.252,4.252,0,0,1-1.63,2.513h-4.6v.121H888.19a.182.182,0,0,1,.03-.121,4.152,4.152,0,0,1,.46-1.09,12.089,12.089,0,0,0,4.8-6.259,3.775,3.775,0,0,1-.034-.581l2.185.86-2.162-1.268a4.218,4.218,0,0,1,1.649-2.917l1.988,3.222-1.49-3.547a4.226,4.226,0,0,1,5.659,5.859Z" transform="translate(-561.454 -368.499)" fill="#6c63ff" opacity="0.1"/>
    <path id="Path_1111" data-name="Path 1111" d="M898.607,555.855a4.151,4.151,0,0,1-1.132,1.238h-4.6v.121H888.19a.182.182,0,0,1,.03-.121,4.153,4.153,0,0,1,.46-1.09,4.2,4.2,0,0,1,2.113-1.777c-.038-.306.872-.264,2.083-.06C895.245,554.564,898.769,555.587,898.607,555.855Z" transform="translate(-561.454 -383.379)" fill="#6c63ff" opacity="0.1"/>
    <path id="Path_1112" data-name="Path 1112" d="M843.432,536.48a4.192,4.192,0,0,0,2.117,1.777,4.314,4.314,0,0,0-.019.909l3.4-.2-3.305.724a4.252,4.252,0,0,0,1.63,2.513h4.607v.121h4.69a.7.7,0,0,0-.03-.121,4.419,4.419,0,0,0-.46-1.09,12.062,12.062,0,0,1-4.8-6.259,4.292,4.292,0,0,0,.038-.581l-2.185.86,2.158-1.268a4.218,4.218,0,0,0-1.649-2.917l-1.988,3.222,1.49-3.547a4.226,4.226,0,0,0-5.659,5.859Z" transform="translate(-533.237 -368.499)" fill="#6c63ff" opacity="0.1"/>
    <path id="Path_1113" data-name="Path 1113" d="M851.45,555.855a4.15,4.15,0,0,0,1.132,1.238h4.607v.121h4.69a.7.7,0,0,0-.03-.121,4.418,4.418,0,0,0-.46-1.09,4.226,4.226,0,0,0-2.117-1.777c.038-.306-.872-.264-2.083-.06C854.812,554.564,851.276,555.587,851.45,555.855Z" transform="translate(-538.572 -383.379)" fill="#6c63ff" opacity="0.1"/>
    <rect id="Rectangle_2195" data-name="Rectangle 2195" width="7.587" height="8.451" transform="translate(321.65 155.395)" fill="#464353"/>
    <rect id="Rectangle_2196" data-name="Rectangle 2196" width="7.587" height="8.451" transform="translate(321.65 155.395)" opacity="0.1"/>
    <path id="Path_1114" data-name="Path 1114" d="M843.685,454.186l-.155,2.2H845.7l.136-2.9Z" transform="translate(-525.268 -282.604)" fill="#a1616a"/>
    <path id="Path_1115" data-name="Path 1115" d="M873.638,454.186l-.328,2.2h1.985l.125-2.9Z" transform="translate(-543.812 -282.604)" fill="#a1616a"/>
    <path id="Path_1116" data-name="Path 1116" d="M879.139,524.351a3.522,3.522,0,0,1-.34,1.385c-.264.287,2.358,2.826,4.422.317,0,0-.887-.755-.679-1.6S879.139,524.351,879.139,524.351Z" transform="translate(-555.595 -364.727)" fill="#a1616a"/>
    <path id="Path_1117" data-name="Path 1117" d="M879.139,524.351a3.522,3.522,0,0,1-.34,1.385c-.264.287,2.358,2.826,4.422.317,0,0-.887-.755-.679-1.6S879.139,524.351,879.139,524.351Z" transform="translate(-555.595 -364.727)" opacity="0.1"/>
    <circle id="Ellipse_93" data-name="Ellipse 93" cx="3.796" cy="3.796" r="3.796" transform="translate(321.646 153.014)" fill="#a1616a"/>
    <path id="Path_1118" data-name="Path 1118" d="M872.589,528.649a1.881,1.881,0,0,1-1.83-1.479,9.686,9.686,0,0,1-1,.755c-.155.053-1.675.913-1.962.966a1.619,1.619,0,0,0-.755.377,3.294,3.294,0,0,0-1.256,2.46c-.053,1.7-.26,5.026-.26,5.026l.079,1.2v.785a2.754,2.754,0,0,0,2.264-.377s0-.287.158-.377.181-.472.155-.63a6.128,6.128,0,0,1,0-.706.506.506,0,0,0,.211.313,1.612,1.612,0,0,1,.053.656c-.079.155-.159.521-.079.6a.377.377,0,0,1-.053.445,2.6,2.6,0,0,0-.34.656s-.079.468-.158.521a2.176,2.176,0,0,0-.181.6h9.432a9.065,9.065,0,0,1-.377-1.468c.026-.234-.234-1.2-.053-1.464a2.006,2.006,0,0,0,.419-1.2l.106,1.019-.287,2.264s1.751.551,1.935.208a12.091,12.091,0,0,0,.445-1.83s.419-1.886.525-2.147.34-5.493-1.075-6.252a42.321,42.321,0,0,0-4.15-2A1.754,1.754,0,0,1,872.589,528.649Z" transform="translate(-547.344 -366.67)" fill="#6c63ff"/>
    <path id="Path_1119" data-name="Path 1119" d="M871.628,544.65a1.887,1.887,0,0,0-.324,1.324,3.664,3.664,0,0,0,.445,1.313" transform="translate(-550.929 -377.555)" fill="none" stroke="#000" stroke-miterlimit="10" stroke-width="1" opacity="0.1"/>
    <path id="Path_1120" data-name="Path 1120" d="M896.331,545.6a3.987,3.987,0,0,1,.159.589,1.792,1.792,0,0,1-.249,1.479" transform="translate(-566.467 -378.147)" fill="none" stroke="#000" stroke-miterlimit="10" stroke-width="1" opacity="0.1"/>
    <path id="Path_1121" data-name="Path 1121" d="M873.871,505a1.256,1.256,0,0,1,.887.091,4.643,4.643,0,0,0,.845.336c.2.041.377.041.6.072a1.856,1.856,0,0,1,1.487,1.453c.17.928-.377,1.841-.377,2.788a2.332,2.332,0,0,0,.54,1.483,4.376,4.376,0,0,1,.755.9c.109.242.132.517.238.755a1.947,1.947,0,0,0,1.072.913,7.3,7.3,0,0,1,1.309.589c.755.5,1.2,1.464,2.075,1.671a.347.347,0,0,0,.275,0,.34.34,0,0,0,.128-.264,1.234,1.234,0,0,0-.351-1.015c-.215-.215-.528-.377-.6-.668s.113-.539.211-.8a2.656,2.656,0,0,0-.8-2.483,5.1,5.1,0,0,1-1.445-2.264,5.98,5.98,0,0,1-.034-.9,5.956,5.956,0,0,0-.317-1.815,2.67,2.67,0,0,0-.453-.872c-.189-.226-.43-.4-.626-.619a9.325,9.325,0,0,1-.7-1.132,3.4,3.4,0,0,0-2.773-1.558,5.719,5.719,0,0,0-2.962,1.03,2.539,2.539,0,0,0-.838.736c-.377.6-.264,1.392-.483,2.071s-.736,1.181-.917,1.845a1.3,1.3,0,0,0-.026.6,3.072,3.072,0,0,0,.268.6,4.493,4.493,0,0,1,.336,1.528,3.014,3.014,0,0,1-.249,1.856,3.11,3.11,0,0,1-.943.8,1.838,1.838,0,0,0,1.317.4,2.326,2.326,0,0,0,1.992-.566,1.977,1.977,0,0,0,.3-1.377,5.789,5.789,0,0,0-.317-1.539,11.744,11.744,0,0,1-.732-2.09,1.969,1.969,0,0,1,.377-1.509c.136-.17.377-.257.49-.438C873.573,505.373,873.531,505.12,873.871,505Z" transform="translate(-550.127 -350.785)" fill="#464353"/>
    <g id="Group_1462" data-name="Group 1462" transform="translate(319.88 153.569)" opacity="0.1">
      <path id="Path_1122" data-name="Path 1122" d="M871.8,517.825a4.494,4.494,0,0,1,.336,1.528c0,.166.026.336.03.506a5.184,5.184,0,0,0,0-1.109,4.456,4.456,0,0,0-.336-1.509,3.4,3.4,0,0,1-.268-.6,1.274,1.274,0,0,0-.026.6A3.07,3.07,0,0,0,871.8,517.825Z" transform="translate(-870.946 -513.682)"/>
      <path id="Path_1123" data-name="Path 1123" d="M873.355,527.873a2.351,2.351,0,0,1-1.992.57,2.949,2.949,0,0,1-.894-.136c-.143.117-.3.226-.449.332a1.837,1.837,0,0,0,1.317.4,2.326,2.326,0,0,0,1.992-.566,1.886,1.886,0,0,0,.309-1.287A1.444,1.444,0,0,1,873.355,527.873Z" transform="translate(-870.02 -520.252)"/>
      <path id="Path_1124" data-name="Path 1124" d="M903.847,531.387a.6.6,0,0,0,.045.125c.045-.106.1-.215.14-.324a1.563,1.563,0,0,0,.075-.777,1.551,1.551,0,0,1-.049.177C903.961,530.851,903.783,531.116,903.847,531.387Z" transform="translate(-891.076 -522.257)"/>
      <path id="Path_1125" data-name="Path 1125" d="M881.94,511.577a2.356,2.356,0,0,0,0-.781,1.852,1.852,0,0,0-1.487-1.453c-.2-.034-.4-.034-.6-.072a4.927,4.927,0,0,1-.845-.336,1.256,1.256,0,0,0-.887-.094c-.34.121-.3.377-.449.626-.109.181-.355.272-.49.438a1.951,1.951,0,0,0-.377,1.392,1.7,1.7,0,0,1,.351-.789c.136-.17.377-.257.491-.438.151-.253.109-.506.449-.626a1.256,1.256,0,0,1,.887.091,4.64,4.64,0,0,0,.845.336c.2.041.377.041.6.072a1.856,1.856,0,0,1,1.487,1.453A1.474,1.474,0,0,1,881.94,511.577Z" transform="translate(-874.24 -508.801)"/>
      <path id="Path_1126" data-name="Path 1126" d="M895.6,528.02a.377.377,0,0,1-.275,0c-.875-.208-1.328-1.17-2.075-1.671a7.88,7.88,0,0,0-1.309-.589,1.939,1.939,0,0,1-1.072-.909c-.106-.245-.128-.517-.238-.755a4.4,4.4,0,0,0-.755-.9,2.351,2.351,0,0,1-.543-1.324,2.906,2.906,0,0,0-.034.441,2.332,2.332,0,0,0,.566,1.494,4.375,4.375,0,0,1,.755.9c.109.242.132.517.238.755a1.947,1.947,0,0,0,1.072.913,7.3,7.3,0,0,1,1.309.589c.755.5,1.2,1.464,2.075,1.671a.268.268,0,0,0,.4-.264,1.246,1.246,0,0,0-.023-.426.23.23,0,0,1-.094.075Z" transform="translate(-882.026 -516.939)"/>
    </g>
    <rect id="Rectangle_2197" data-name="Rectangle 2197" width="4.852" height="6.931" transform="translate(312.368 151.935)" fill="#6c63ff" opacity="0.1"/>
    <rect id="Rectangle_2198" data-name="Rectangle 2198" width="3.464" height="4.95" transform="translate(313.062 152.928)" fill="#6c63ff" opacity="0.1"/>
    <rect id="Rectangle_2199" data-name="Rectangle 2199" width="7.969" height="4.158" transform="translate(333.157 152.977)" fill="#6c63ff" opacity="0.1"/>
    <rect id="Rectangle_2200" data-name="Rectangle 2200" width="5.89" height="3.075" transform="translate(334.199 153.52)" fill="#6c63ff" opacity="0.1"/>
  </g>
</svg>
