<?xml version="1.0" encoding="UTF-8" standalone="no"?>
<svg xmlns:dc="http://purl.org/dc/elements/1.1/" xmlns:cc="http://creativecommons.org/ns#" xmlns:rdf="http://www.w3.org/1999/02/22-rdf-syntax-ns#" xmlns:svg="http://www.w3.org/2000/svg" xmlns="http://www.w3.org/2000/svg" xmlns:sodipodi="http://sodipodi.sourceforge.net/DTD/sodipodi-0.dtd" xmlns:inkscape="http://www.inkscape.org/namespaces/inkscape" width="100" height="100" id="svg7960" version="1.1" inkscape:version="0.48.4 r9939" sodipodi:docname="AmericanExpress.svg">
  <defs id="defs7962">
    <clipPath clipPathUnits="userSpaceOnUse" id="clipPath3094-8">
      <path style="font-size:medium;font-style:normal;font-variant:normal;font-weight:normal;font-stretch:normal;text-indent:0;text-align:start;text-decoration:none;line-height:normal;letter-spacing:normal;word-spacing:normal;text-transform:none;direction:ltr;block-progression:tb;writing-mode:lr-tb;text-anchor:start;baseline-shift:baseline;color:#000000;fill:#ee0028;fill-opacity:1;stroke:none;stroke-width:1px;marker:none;visibility:visible;display:inline;overflow:visible;enable-background:accumulate;font-family:Sans;-inkscape-font-specification:Sans" d="m 1475.7812,430.15625 0,1 7.4688,0 0,-1 -7.4688,0 z m -1.6562,2.53125 0,1 10.7812,0 0,-1 -10.7812,0 z m -0.625,2.5 0,1 12.0625,0 0,-1 -12.0625,0 z m 0.625,2.53125 0,1 10.7812,0 0,-1 -10.7812,0 z m 0,2.53125 0,1 10.7812,0 0,-1 -10.7812,0 z" id="path3096-8" inkscape:connector-curvature="0"/>
    </clipPath>
    <clipPath clipPathUnits="userSpaceOnUse" id="clipPath3094-8-2">
      <path style="font-size:medium;font-style:normal;font-variant:normal;font-weight:normal;font-stretch:normal;text-indent:0;text-align:start;text-decoration:none;line-height:normal;letter-spacing:normal;word-spacing:normal;text-transform:none;direction:ltr;block-progression:tb;writing-mode:lr-tb;text-anchor:start;baseline-shift:baseline;color:#000000;fill:#ee0028;fill-opacity:1;stroke:none;stroke-width:1px;marker:none;visibility:visible;display:inline;overflow:visible;enable-background:accumulate;font-family:Sans;-inkscape-font-specification:Sans" d="m 1475.7812,430.15625 0,1 7.4688,0 0,-1 -7.4688,0 z m -1.6562,2.53125 0,1 10.7812,0 0,-1 -10.7812,0 z m -0.625,2.5 0,1 12.0625,0 0,-1 -12.0625,0 z m 0.625,2.53125 0,1 10.7812,0 0,-1 -10.7812,0 z m 0,2.53125 0,1 10.7812,0 0,-1 -10.7812,0 z" id="path3096-8-4" inkscape:connector-curvature="0"/>
    </clipPath>
    <clipPath clipPathUnits="userSpaceOnUse" id="clipPath3094-8-2-4">
      <path style="font-size:medium;font-style:normal;font-variant:normal;font-weight:normal;font-stretch:normal;text-indent:0;text-align:start;text-decoration:none;line-height:normal;letter-spacing:normal;word-spacing:normal;text-transform:none;direction:ltr;block-progression:tb;writing-mode:lr-tb;text-anchor:start;baseline-shift:baseline;color:#000000;fill:#ee0028;fill-opacity:1;stroke:none;stroke-width:1px;marker:none;visibility:visible;display:inline;overflow:visible;enable-background:accumulate;font-family:Sans;-inkscape-font-specification:Sans" d="m 1475.7812,430.15625 0,1 7.4688,0 0,-1 -7.4688,0 z m -1.6562,2.53125 0,1 10.7812,0 0,-1 -10.7812,0 z m -0.625,2.5 0,1 12.0625,0 0,-1 -12.0625,0 z m 0.625,2.53125 0,1 10.7812,0 0,-1 -10.7812,0 z m 0,2.53125 0,1 10.7812,0 0,-1 -10.7812,0 z" id="path3096-8-4-0" inkscape:connector-curvature="0"/>
    </clipPath>
    <clipPath clipPathUnits="userSpaceOnUse" id="clipPath3094-8-7">
      <path style="font-size:medium;font-style:normal;font-variant:normal;font-weight:normal;font-stretch:normal;text-indent:0;text-align:start;text-decoration:none;line-height:normal;letter-spacing:normal;word-spacing:normal;text-transform:none;direction:ltr;block-progression:tb;writing-mode:lr-tb;text-anchor:start;baseline-shift:baseline;color:#000000;fill:#ee0028;fill-opacity:1;stroke:none;stroke-width:1px;marker:none;visibility:visible;display:inline;overflow:visible;enable-background:accumulate;font-family:Sans;-inkscape-font-specification:Sans" d="m 1475.7812,430.15625 0,1 7.4688,0 0,-1 -7.4688,0 z m -1.6562,2.53125 0,1 10.7812,0 0,-1 -10.7812,0 z m -0.625,2.5 0,1 12.0625,0 0,-1 -12.0625,0 z m 0.625,2.53125 0,1 10.7812,0 0,-1 -10.7812,0 z m 0,2.53125 0,1 10.7812,0 0,-1 -10.7812,0 z" id="path3096-8-6" inkscape:connector-curvature="0"/>
    </clipPath>
  </defs>
  <sodipodi:namedview id="base" pagecolor="#ffffff" bordercolor="#666666" borderopacity="1.0" inkscape:pageopacity="0.0" inkscape:pageshadow="2" inkscape:zoom="1.979899" inkscape:cx="120.66649" inkscape:cy="91.541357" inkscape:document-units="px" inkscape:current-layer="text3824" showgrid="false" inkscape:window-width="667" inkscape:window-height="689" inkscape:window-x="683" inkscape:window-y="0" inkscape:window-maximized="0"/>
  
  <g inkscape:label="Layer 1" inkscape:groupmode="layer" id="layer1" transform="translate(0,-952.36218)">
    <path style="fill:#2c8cd0;fill-opacity:1;fill-rule:evenodd;stroke:#000000;stroke-width:0.80000001;stroke-linecap:round;stroke-linejoin:round;stroke-miterlimit:4;stroke-dashoffset:0;stroke-opacity:1" d="m 21.489,981.49744 56.016946,0 c 1.993662,0 3.598668,1.605 3.598668,3.59866 l 0,33.517 c 0,1.9936 -1.605006,3.5986 -3.598668,3.5986 l -56.016946,0 c -1.993663,0 -3.598669,-1.605 -3.598669,-3.5986 l 0,-33.517 c 0,-1.99366 1.605006,-3.59866 3.598669,-3.59866 z" id="rect3784"/>
    <g transform="scale(1.1067613,0.9035372)" style="font-size:9.47575474px;font-style:normal;font-weight:normal;line-height:125%;letter-spacing:0px;word-spacing:0px;fill:#5cc1ef;fill-opacity:1;stroke:#ffffff;stroke-width:2.71061158;stroke-linecap:round;stroke-linejoin:round;stroke-miterlimit:4;stroke-opacity:1;font-family:Sans;-inkscape-font-specification:Sans Bold" id="text3792">
      <path d="m 24.499582,1106.9969 -1.48984,0 -0.592235,-1.5407 -2.711324,0 -0.559847,1.5407 -1.452826,0 2.641922,-6.7829 1.448199,0 z m -2.521624,-2.6835 -0.934621,-2.517 -0.916113,2.517 z" style="font-weight:bold;fill:#5cc1ef;stroke:#ffffff;-inkscape-font-specification:Sans Bold" id="path3065"/>
      <path d="m 25.212114,1106.9969 0,-6.7829 2.049688,0 1.230737,4.6268 1.216857,-4.6268 2.054314,0 0,6.7829 -1.272379,0 0,-5.3393 -1.346408,5.3393 -1.318648,0 -1.341781,-5.3393 0,5.3393 z" style="font-weight:bold;fill:#5cc1ef;stroke:#ffffff;-inkscape-font-specification:Sans Bold" id="path3067"/>
      <path d="m 33.133253,1106.9969 0,-6.7829 5.029368,0 0,1.1475 -3.659825,0 0,1.5037 3.405349,0 0,1.1428 -3.405349,0 0,1.8461 3.789377,0 0,1.1428 z" style="font-weight:bold;fill:#5cc1ef;stroke:#ffffff;-inkscape-font-specification:Sans Bold" id="path3069"/>
      <path d="m 39.467388,1106.9969 0,-6.7829 2.882517,0 c 0.724867,0 1.251554,0.061 1.580064,0.1828 0.3285,0.1218 0.591458,0.3385 0.788875,0.65 0.197405,0.3116 0.296111,0.6679 0.296117,1.0688 -6e-6,0.509 -0.149607,0.9293 -0.448803,1.2609 -0.299207,0.3315 -0.746467,0.5405 -1.341781,0.6269 0.296112,0.1727 0.540563,0.3624 0.733353,0.5691 0.192779,0.2067 0.452653,0.5737 0.779621,1.1012 l 0.828203,1.3232 -1.637899,0 -0.990142,-1.4759 c -0.351643,-0.5275 -0.592238,-0.8598 -0.721786,-0.9971 -0.129555,-0.1373 -0.266817,-0.2313 -0.411788,-0.2822 -0.144977,-0.051 -0.374776,-0.076 -0.689398,-0.076 l -0.27761,0 0,2.8316 z m 1.369543,-3.9143 1.013276,0 c 0.657007,10e-5 1.067252,-0.028 1.230738,-0.083 0.163477,-0.056 0.291486,-0.1512 0.384027,-0.2869 0.09253,-0.1357 0.1388,-0.3054 0.138805,-0.509 -5e-6,-0.2282 -0.06092,-0.4125 -0.18276,-0.5529 -0.121844,-0.1403 -0.293808,-0.229 -0.515892,-0.266 -0.111048,-0.015 -0.444179,-0.023 -0.999396,-0.023 l -1.068798,0 z" style="font-weight:bold;fill:#5cc1ef;stroke:#ffffff;-inkscape-font-specification:Sans Bold" id="path3071"/>
      <path d="m 46.268833,1106.9969 0,-6.7829 1.369543,0 0,6.7829 z" style="font-weight:bold;fill:#5cc1ef;stroke:#ffffff;-inkscape-font-specification:Sans Bold" id="path3073"/>
      <path d="m 53.278485,1104.5031 1.327901,0.421 c -0.203587,0.7403 -0.542117,1.2901 -1.01559,1.6495 -0.473484,0.3593 -1.074201,0.539 -1.802152,0.539 -0.900692,0 -1.640985,-0.3077 -2.22088,-0.923 -0.579897,-0.6154 -0.869845,-1.4567 -0.869844,-2.524 -1e-6,-1.1289 0.291489,-2.0057 0.874471,-2.6303 0.582979,-0.6246 1.349491,-0.937 2.299536,-0.937 0.829741,0 1.503716,0.2453 2.021927,0.7357 0.308449,0.29 0.539791,0.7064 0.694025,1.2493 l -1.355663,0.3238 c -0.0802,-0.3516 -0.24754,-0.6292 -0.502011,-0.8328 -0.25448,-0.2036 -0.563706,-0.3054 -0.92768,-0.3054 -0.502786,0 -0.910718,0.1805 -1.223798,0.5414 -0.313084,0.3609 -0.469625,0.9454 -0.469623,1.7535 -2e-6,0.8575 0.154226,1.4683 0.462683,1.8323 0.308453,0.3639 0.709445,0.5459 1.202977,0.5459 0.363974,0 0.677056,-0.1156 0.939247,-0.347 0.262183,-0.2313 0.45034,-0.5953 0.564474,-1.0919 z" style="font-weight:bold;fill:#5cc1ef;stroke:#ffffff;-inkscape-font-specification:Sans Bold" id="path3075"/>
      <path d="m 61.902902,1106.9969 -1.48984,0 -0.592235,-1.5407 -2.711324,0 -0.559847,1.5407 -1.452826,0 2.641922,-6.7829 1.448199,0 z m -2.521624,-2.6835 -0.93462,-2.517 -0.916113,2.517 z" style="font-weight:bold;fill:#5cc1ef;stroke:#ffffff;-inkscape-font-specification:Sans Bold" id="path3077"/>
      <path d="m 62.647823,1106.9969 0,-6.7829 1.332528,0 2.7761,4.5297 0,-4.5297 1.272379,0 0,6.7829 -1.37417,0 -2.734458,-4.4232 0,4.4232 z" style="font-weight:bold;fill:#5cc1ef;stroke:#ffffff;-inkscape-font-specification:Sans Bold" id="path3079"/>
    </g>
    <g transform="scale(1.1067613,0.9035372)" style="font-size:9.47575474px;font-style:normal;font-weight:normal;line-height:125%;letter-spacing:0px;word-spacing:0px;fill:#2c8cd0;fill-opacity:1;stroke:none;font-family:Sans;-inkscape-font-specification:Sans Bold" id="text3798">
      <path d="m 24.499582,1106.9969 -1.48984,0 -0.592235,-1.5407 -2.711324,0 -0.559847,1.5407 -1.452826,0 2.641922,-6.7829 1.448199,0 z m -2.521624,-2.6835 -0.934621,-2.517 -0.916113,2.517 z" style="font-weight:bold;fill:#2c8cd0;-inkscape-font-specification:Sans Bold" id="path3048"/>
      <path d="m 25.212114,1106.9969 0,-6.7829 2.049688,0 1.230737,4.6268 1.216857,-4.6268 2.054314,0 0,6.7829 -1.272379,0 0,-5.3393 -1.346408,5.3393 -1.318648,0 -1.341781,-5.3393 0,5.3393 z" style="font-weight:bold;fill:#2c8cd0;-inkscape-font-specification:Sans Bold" id="path3050"/>
      <path d="m 33.133253,1106.9969 0,-6.7829 5.029368,0 0,1.1475 -3.659825,0 0,1.5037 3.405349,0 0,1.1428 -3.405349,0 0,1.8461 3.789377,0 0,1.1428 z" style="font-weight:bold;fill:#2c8cd0;-inkscape-font-specification:Sans Bold" id="path3052"/>
      <path d="m 39.467388,1106.9969 0,-6.7829 2.882517,0 c 0.724867,0 1.251554,0.061 1.580064,0.1828 0.3285,0.1218 0.591458,0.3385 0.788875,0.65 0.197405,0.3116 0.296111,0.6679 0.296117,1.0688 -6e-6,0.509 -0.149607,0.9293 -0.448803,1.2609 -0.299207,0.3315 -0.746467,0.5405 -1.341781,0.6269 0.296112,0.1727 0.540563,0.3624 0.733353,0.5691 0.192779,0.2067 0.452653,0.5737 0.779621,1.1012 l 0.828203,1.3232 -1.637899,0 -0.990142,-1.4759 c -0.351643,-0.5275 -0.592238,-0.8598 -0.721786,-0.9971 -0.129555,-0.1373 -0.266817,-0.2313 -0.411788,-0.2822 -0.144977,-0.051 -0.374776,-0.076 -0.689398,-0.076 l -0.27761,0 0,2.8316 z m 1.369543,-3.9143 1.013276,0 c 0.657007,10e-5 1.067252,-0.028 1.230738,-0.083 0.163477,-0.056 0.291486,-0.1512 0.384027,-0.2869 0.09253,-0.1357 0.1388,-0.3054 0.138805,-0.509 -5e-6,-0.2282 -0.06092,-0.4125 -0.18276,-0.5529 -0.121844,-0.1403 -0.293808,-0.229 -0.515892,-0.266 -0.111048,-0.015 -0.444179,-0.023 -0.999396,-0.023 l -1.068798,0 z" style="font-weight:bold;fill:#2c8cd0;-inkscape-font-specification:Sans Bold" id="path3054"/>
      <path d="m 46.268833,1106.9969 0,-6.7829 1.369543,0 0,6.7829 z" style="font-weight:bold;fill:#2c8cd0;-inkscape-font-specification:Sans Bold" id="path3056"/>
      <path d="m 53.278485,1104.5031 1.327901,0.421 c -0.203587,0.7403 -0.542117,1.2901 -1.01559,1.6495 -0.473484,0.3593 -1.074201,0.539 -1.802152,0.539 -0.900692,0 -1.640985,-0.3077 -2.22088,-0.923 -0.579897,-0.6154 -0.869845,-1.4567 -0.869844,-2.524 -1e-6,-1.1289 0.291489,-2.0057 0.874471,-2.6303 0.582979,-0.6246 1.349491,-0.937 2.299536,-0.937 0.829741,0 1.503716,0.2453 2.021927,0.7357 0.308449,0.29 0.539791,0.7064 0.694025,1.2493 l -1.355663,0.3238 c -0.0802,-0.3516 -0.24754,-0.6292 -0.502011,-0.8328 -0.25448,-0.2036 -0.563706,-0.3054 -0.92768,-0.3054 -0.502786,0 -0.910718,0.1805 -1.223798,0.5414 -0.313084,0.3609 -0.469625,0.9454 -0.469623,1.7535 -2e-6,0.8575 0.154226,1.4683 0.462683,1.8323 0.308453,0.3639 0.709445,0.5459 1.202977,0.5459 0.363974,0 0.677056,-0.1156 0.939247,-0.347 0.262183,-0.2313 0.45034,-0.5953 0.564474,-1.0919 z" style="font-weight:bold;fill:#2c8cd0;-inkscape-font-specification:Sans Bold" id="path3058"/>
      <path d="m 61.902902,1106.9969 -1.48984,0 -0.592235,-1.5407 -2.711324,0 -0.559847,1.5407 -1.452826,0 2.641922,-6.7829 1.448199,0 z m -2.521624,-2.6835 -0.93462,-2.517 -0.916113,2.517 z" style="font-weight:bold;fill:#2c8cd0;-inkscape-font-specification:Sans Bold" id="path3060"/>
      <path d="m 62.647823,1106.9969 0,-6.7829 1.332528,0 2.7761,4.5297 0,-4.5297 1.272379,0 0,6.7829 -1.37417,0 -2.734458,-4.4232 0,4.4232 z" style="font-weight:bold;fill:#2c8cd0;-inkscape-font-specification:Sans Bold" id="path3062"/>
    </g>
    <g transform="scale(1.1067613,0.9035372)" style="font-size:9.47575474px;font-style:normal;font-weight:normal;line-height:125%;letter-spacing:0px;word-spacing:0px;fill:#5cc1ef;fill-opacity:1;stroke:#ffffff;stroke-width:2.71061158;stroke-linecap:round;stroke-linejoin:round;stroke-miterlimit:4;stroke-opacity:1;font-family:Sans;-inkscape-font-specification:Sans Bold" id="text3818">
      <path d="m 28.482823,1117.3231 0,-6.7829 5.029368,0 0,1.1474 -3.659826,0 0,1.5038 3.40535,0 0,1.1428 -3.40535,0 0,1.8461 3.789377,0 0,1.1428 z" style="font-weight:bold;fill:#5cc1ef;stroke:#ffffff;-inkscape-font-specification:Sans Bold" id="path3033"/>
      <path d="m 34.122932,1117.3231 2.318044,-3.5395 -2.100582,-3.2434 1.600884,0 1.360289,2.1792 1.332528,-2.1792 1.587004,0 -2.109836,3.2943 2.318043,3.4886 -1.651779,0 -1.503721,-2.3458 -1.508348,2.3458 z" style="font-weight:bold;fill:#5cc1ef;stroke:#ffffff;-inkscape-font-specification:Sans Bold" id="path3035"/>
      <path d="m 41.141838,1117.3231 0,-6.7829 2.197746,0 c 0.832827,0 1.375708,0.034 1.628646,0.1018 0.388649,0.1018 0.714069,0.3231 0.976261,0.6639 0.262182,0.3409 0.393275,0.7812 0.393281,1.321 -6e-6,0.4164 -0.07558,0.7665 -0.226715,1.0503 -0.151148,0.2838 -0.343162,0.5066 -0.57604,0.6686 -0.232889,0.1619 -0.469628,0.2691 -0.710219,0.3215 -0.326967,0.065 -0.800446,0.097 -1.420438,0.097 l -0.892979,0 0,2.5586 z m 1.369543,-5.6355 0,1.9248 0.749547,0 c 0.539794,0 0.900687,-0.035 1.082679,-0.1064 0.181985,-0.071 0.324645,-0.182 0.427982,-0.3331 0.103328,-0.1512 0.154995,-0.327 0.154999,-0.5275 -4e-6,-0.2468 -0.07249,-0.4503 -0.217461,-0.6108 -0.144978,-0.1603 -0.328509,-0.2606 -0.550593,-0.3007 -0.163485,-0.031 -0.49199,-0.046 -0.985516,-0.046 z" style="font-weight:bold;fill:#5cc1ef;stroke:#ffffff;-inkscape-font-specification:Sans Bold" id="path3037"/>
      <path d="m 47.475973,1117.3231 0,-6.7829 2.882517,0 c 0.724867,0 1.251554,0.061 1.580064,0.1827 0.3285,0.1219 0.591458,0.3386 0.788875,0.6501 0.197405,0.3116 0.296111,0.6678 0.296117,1.0688 -6e-6,0.509 -0.149607,0.9292 -0.448803,1.2608 -0.299207,0.3316 -0.746467,0.5406 -1.341781,0.627 0.296112,0.1727 0.540563,0.3624 0.733353,0.5691 0.192779,0.2066 0.452653,0.5737 0.779621,1.1011 l 0.828203,1.3233 -1.637899,0 -0.990142,-1.4759 c -0.351643,-0.5275 -0.592238,-0.8599 -0.721786,-0.9971 -0.129555,-0.1373 -0.266817,-0.2314 -0.411788,-0.2823 -0.144977,-0.051 -0.374776,-0.076 -0.689398,-0.076 l -0.27761,0 0,2.8316 z m 1.369543,-3.9143 1.013276,0 c 0.657007,0 1.067252,-0.028 1.230738,-0.083 0.163477,-0.055 0.291486,-0.1511 0.384027,-0.2868 0.09253,-0.1357 0.1388,-0.3054 0.138805,-0.509 -5e-6,-0.2282 -0.06092,-0.4125 -0.18276,-0.5529 -0.121844,-0.1403 -0.293808,-0.229 -0.515892,-0.266 -0.111048,-0.015 -0.444179,-0.023 -0.999396,-0.023 l -1.068798,0 z" style="font-weight:bold;fill:#5cc1ef;stroke:#ffffff;-inkscape-font-specification:Sans Bold" id="path3039"/>
      <path d="m 54.31906,1117.3231 0,-6.7829 5.029368,0 0,1.1474 -3.659826,0 0,1.5038 3.40535,0 0,1.1428 -3.40535,0 0,1.8461 3.789377,0 0,1.1428 z" style="font-weight:bold;fill:#5cc1ef;stroke:#ffffff;-inkscape-font-specification:Sans Bold" id="path3041"/>
      <path d="m 60.301555,1115.1161 1.332528,-0.1295 c 0.0802,0.4472 0.242907,0.7757 0.488131,0.9855 0.24522,0.2097 0.576038,0.3146 0.992456,0.3146 0.441088,0 0.773448,-0.093 0.997082,-0.2799 0.223626,-0.1866 0.335441,-0.4049 0.335446,-0.6547 -5e-6,-0.1604 -0.04704,-0.2969 -0.141119,-0.4095 -0.09408,-0.1126 -0.258335,-0.2105 -0.492757,-0.2938 -0.160401,-0.055 -0.52592,-0.1542 -1.09656,-0.2961 -0.734126,-0.182 -1.249246,-0.4056 -1.545362,-0.6709 -0.416416,-0.3732 -0.624623,-0.8282 -0.624623,-1.3649 0,-0.3455 0.09793,-0.6686 0.293804,-0.9693 0.195868,-0.3008 0.478105,-0.5298 0.846711,-0.6871 0.368602,-0.1573 0.813549,-0.236 1.334841,-0.236 0.851334,0 1.492149,0.1866 1.922449,0.5599 0.43029,0.3732 0.656234,0.8714 0.677831,1.4944 l -1.369542,0.06 c -0.05861,-0.3486 -0.184307,-0.5992 -0.377087,-0.7519 -0.192789,-0.1527 -0.481965,-0.229 -0.867531,-0.229 -0.397911,0 -0.709451,0.082 -0.934621,0.2452 -0.144976,0.1049 -0.217463,0.2452 -0.217461,0.421 -2e-6,0.1605 0.06786,0.2977 0.203581,0.4118 0.172733,0.145 0.592232,0.2962 1.258498,0.4535 0.66626,0.1573 1.159018,0.32 1.478274,0.4881 0.319246,0.1681 0.569095,0.3979 0.749547,0.6894 0.18044,0.2915 0.270664,0.6516 0.270669,1.0804 -5e-6,0.3886 -0.107965,0.7526 -0.323878,1.0919 -0.215924,0.3393 -0.521295,0.5915 -0.916113,0.7565 -0.394827,0.165 -0.886813,0.2475 -1.47596,0.2475 -0.857508,0 -1.51606,-0.1982 -1.975658,-0.5945 -0.459599,-0.3964 -0.734124,-0.974 -0.823576,-1.7328 z" style="font-weight:bold;fill:#5cc1ef;stroke:#ffffff;-inkscape-font-specification:Sans Bold" id="path3043"/>
      <path d="m 66.631065,1115.1161 1.332528,-0.1295 c 0.0802,0.4472 0.242907,0.7757 0.488131,0.9855 0.245219,0.2097 0.576038,0.3146 0.992455,0.3146 0.441088,0 0.773449,-0.093 0.997083,-0.2799 0.223626,-0.1866 0.335441,-0.4049 0.335445,-0.6547 -4e-6,-0.1604 -0.04704,-0.2969 -0.141118,-0.4095 -0.09408,-0.1126 -0.258336,-0.2105 -0.492758,-0.2938 -0.1604,-0.055 -0.52592,-0.1542 -1.096559,-0.2961 -0.734126,-0.182 -1.249247,-0.4056 -1.545363,-0.6709 -0.416415,-0.3732 -0.624623,-0.8282 -0.624622,-1.3649 -1e-6,-0.3455 0.09793,-0.6686 0.293804,-0.9693 0.195868,-0.3008 0.478105,-0.5298 0.84671,-0.6871 0.368603,-0.1573 0.813549,-0.236 1.334842,-0.236 0.851333,0 1.492149,0.1866 1.922449,0.5599 0.43029,0.3732 0.656234,0.8714 0.677831,1.4944 l -1.369543,0.06 c -0.05861,-0.3486 -0.184306,-0.5992 -0.377086,-0.7519 -0.192789,-0.1527 -0.481966,-0.229 -0.867532,-0.229 -0.39791,0 -0.70945,0.082 -0.93462,0.2452 -0.144976,0.1049 -0.217463,0.2452 -0.217461,0.421 -2e-6,0.1605 0.06786,0.2977 0.20358,0.4118 0.172733,0.145 0.592232,0.2962 1.258499,0.4535 0.66626,0.1573 1.159017,0.32 1.478273,0.4881 0.319247,0.1681 0.569096,0.3979 0.749547,0.6894 0.180441,0.2915 0.270664,0.6516 0.27067,1.0804 -6e-6,0.3886 -0.107965,0.7526 -0.323878,1.0919 -0.215924,0.3393 -0.521295,0.5915 -0.916113,0.7565 -0.394828,0.165 -0.886814,0.2475 -1.47596,0.2475 -0.857509,0 -1.516061,-0.1982 -1.975658,-0.5945 -0.459599,-0.3964 -0.734125,-0.974 -0.823576,-1.7328 z" style="font-weight:bold;fill:#5cc1ef;stroke:#ffffff;-inkscape-font-specification:Sans Bold" id="path3045"/>
    </g>
    <g transform="scale(1.1067613,0.9035372)" style="font-size:9.47575474px;font-style:normal;font-weight:normal;line-height:125%;letter-spacing:0px;word-spacing:0px;fill:#2c8cd0;fill-opacity:1;stroke:none;font-family:Sans;-inkscape-font-specification:Sans Bold" id="text3824">
      <path d="m 28.482823,1117.3231 0,-6.7829 5.029368,0 0,1.1474 -3.659826,0 0,1.5038 3.40535,0 0,1.1428 -3.40535,0 0,1.8461 3.789377,0 0,1.1428 z" style="font-weight:bold;fill:#2c8cd0;-inkscape-font-specification:Sans Bold" id="path3018"/>
      <path d="m 34.122932,1117.3231 2.318044,-3.5395 -2.100582,-3.2434 1.600884,0 1.360289,2.1792 1.332528,-2.1792 1.587004,0 -2.109836,3.2943 2.318043,3.4886 -1.651779,0 -1.503721,-2.3458 -1.508348,2.3458 z" style="font-weight:bold;fill:#2c8cd0;-inkscape-font-specification:Sans Bold" id="path3020"/>
      <path d="m 41.141838,1117.3231 0,-6.7829 2.197746,0 c 0.832827,0 1.375708,0.034 1.628646,0.1018 0.388649,0.1018 0.714069,0.3231 0.976261,0.6639 0.262182,0.3409 0.393275,0.7812 0.393281,1.321 -6e-6,0.4164 -0.07558,0.7665 -0.226715,1.0503 -0.151148,0.2838 -0.343162,0.5066 -0.57604,0.6686 -0.232889,0.1619 -0.469628,0.2691 -0.710219,0.3215 -0.326967,0.065 -0.800446,0.097 -1.420438,0.097 l -0.892979,0 0,2.5586 z m 1.369543,-5.6355 0,1.9248 0.749547,0 c 0.539794,0 0.900687,-0.035 1.082679,-0.1064 0.181985,-0.071 0.324645,-0.182 0.427982,-0.3331 0.103328,-0.1512 0.154995,-0.327 0.154999,-0.5275 -4e-6,-0.2468 -0.07249,-0.4503 -0.217461,-0.6108 -0.144978,-0.1603 -0.328509,-0.2606 -0.550593,-0.3007 -0.163485,-0.031 -0.49199,-0.046 -0.985516,-0.046 z" style="font-weight:bold;fill:#2c8cd0;-inkscape-font-specification:Sans Bold" id="path3022"/>
      <path d="m 47.475973,1117.3231 0,-6.7829 2.882517,0 c 0.724867,0 1.251554,0.061 1.580064,0.1827 0.3285,0.1219 0.591458,0.3386 0.788875,0.6501 0.197405,0.3116 0.296111,0.6678 0.296117,1.0688 -6e-6,0.509 -0.149607,0.9292 -0.448803,1.2608 -0.299207,0.3316 -0.746467,0.5406 -1.341781,0.627 0.296112,0.1727 0.540563,0.3624 0.733353,0.5691 0.192779,0.2066 0.452653,0.5737 0.779621,1.1011 l 0.828203,1.3233 -1.637899,0 -0.990142,-1.4759 c -0.351643,-0.5275 -0.592238,-0.8599 -0.721786,-0.9971 -0.129555,-0.1373 -0.266817,-0.2314 -0.411788,-0.2823 -0.144977,-0.051 -0.374776,-0.076 -0.689398,-0.076 l -0.27761,0 0,2.8316 z m 1.369543,-3.9143 1.013276,0 c 0.657007,0 1.067252,-0.028 1.230738,-0.083 0.163477,-0.055 0.291486,-0.1511 0.384027,-0.2868 0.09253,-0.1357 0.1388,-0.3054 0.138805,-0.509 -5e-6,-0.2282 -0.06092,-0.4125 -0.18276,-0.5529 -0.121844,-0.1403 -0.293808,-0.229 -0.515892,-0.266 -0.111048,-0.015 -0.444179,-0.023 -0.999396,-0.023 l -1.068798,0 z" style="font-weight:bold;fill:#2c8cd0;-inkscape-font-specification:Sans Bold" id="path3024"/>
      <path d="m 54.31906,1117.3231 0,-6.7829 5.029368,0 0,1.1474 -3.659826,0 0,1.5038 3.40535,0 0,1.1428 -3.40535,0 0,1.8461 3.789377,0 0,1.1428 z" style="font-weight:bold;fill:#2c8cd0;-inkscape-font-specification:Sans Bold" id="path3026"/>
      <path d="m 60.301555,1115.1161 1.332528,-0.1295 c 0.0802,0.4472 0.242907,0.7757 0.488131,0.9855 0.24522,0.2097 0.576038,0.3146 0.992456,0.3146 0.441088,0 0.773448,-0.093 0.997082,-0.2799 0.223626,-0.1866 0.335441,-0.4049 0.335446,-0.6547 -5e-6,-0.1604 -0.04704,-0.2969 -0.141119,-0.4095 -0.09408,-0.1126 -0.258335,-0.2105 -0.492757,-0.2938 -0.160401,-0.055 -0.52592,-0.1542 -1.09656,-0.2961 -0.734126,-0.182 -1.249246,-0.4056 -1.545362,-0.6709 -0.416416,-0.3732 -0.624623,-0.8282 -0.624623,-1.3649 0,-0.3455 0.09793,-0.6686 0.293804,-0.9693 0.195868,-0.3008 0.478105,-0.5298 0.846711,-0.6871 0.368602,-0.1573 0.813549,-0.236 1.334841,-0.236 0.851334,0 1.492149,0.1866 1.922449,0.5599 0.43029,0.3732 0.656234,0.8714 0.677831,1.4944 l -1.369542,0.06 c -0.05861,-0.3486 -0.184307,-0.5992 -0.377087,-0.7519 -0.192789,-0.1527 -0.481965,-0.229 -0.867531,-0.229 -0.397911,0 -0.709451,0.082 -0.934621,0.2452 -0.144976,0.1049 -0.217463,0.2452 -0.217461,0.421 -2e-6,0.1605 0.06786,0.2977 0.203581,0.4118 0.172733,0.145 0.592232,0.2962 1.258498,0.4535 0.66626,0.1573 1.159018,0.32 1.478274,0.4881 0.319246,0.1681 0.569095,0.3979 0.749547,0.6894 0.18044,0.2915 0.270664,0.6516 0.270669,1.0804 -5e-6,0.3886 -0.107965,0.7526 -0.323878,1.0919 -0.215924,0.3393 -0.521295,0.5915 -0.916113,0.7565 -0.394827,0.165 -0.886813,0.2475 -1.47596,0.2475 -0.857508,0 -1.51606,-0.1982 -1.975658,-0.5945 -0.459599,-0.3964 -0.734124,-0.974 -0.823576,-1.7328 z" style="font-weight:bold;fill:#2c8cd0;-inkscape-font-specification:Sans Bold" id="path3028"/>
      <path d="m 66.631065,1115.1161 1.332528,-0.1295 c 0.0802,0.4472 0.242907,0.7757 0.488131,0.9855 0.245219,0.2097 0.576038,0.3146 0.992455,0.3146 0.441088,0 0.773449,-0.093 0.997083,-0.2799 0.223626,-0.1866 0.335441,-0.4049 0.335445,-0.6547 -4e-6,-0.1604 -0.04704,-0.2969 -0.141118,-0.4095 -0.09408,-0.1126 -0.258336,-0.2105 -0.492758,-0.2938 -0.1604,-0.055 -0.52592,-0.1542 -1.096559,-0.2961 -0.734126,-0.182 -1.249247,-0.4056 -1.545363,-0.6709 -0.416415,-0.3732 -0.624623,-0.8282 -0.624622,-1.3649 -1e-6,-0.3455 0.09793,-0.6686 0.293804,-0.9693 0.195868,-0.3008 0.478105,-0.5298 0.84671,-0.6871 0.368603,-0.1573 0.813549,-0.236 1.334842,-0.236 0.851333,0 1.492149,0.1866 1.922449,0.5599 0.43029,0.3732 0.656234,0.8714 0.677831,1.4944 l -1.369543,0.06 c -0.05861,-0.3486 -0.184306,-0.5992 -0.377086,-0.7519 -0.192789,-0.1527 -0.481966,-0.229 -0.867532,-0.229 -0.39791,0 -0.70945,0.082 -0.93462,0.2452 -0.144976,0.1049 -0.217463,0.2452 -0.217461,0.421 -2e-6,0.1605 0.06786,0.2977 0.20358,0.4118 0.172733,0.145 0.592232,0.2962 1.258499,0.4535 0.66626,0.1573 1.159017,0.32 1.478273,0.4881 0.319247,0.1681 0.569096,0.3979 0.749547,0.6894 0.180441,0.2915 0.270664,0.6516 0.27067,1.0804 -6e-6,0.3886 -0.107965,0.7526 -0.323878,1.0919 -0.215924,0.3393 -0.521295,0.5915 -0.916113,0.7565 -0.394828,0.165 -0.886814,0.2475 -1.47596,0.2475 -0.857509,0 -1.516061,-0.1982 -1.975658,-0.5945 -0.459599,-0.3964 -0.734125,-0.974 -0.823576,-1.7328 z" style="font-weight:bold;fill:#2c8cd0;-inkscape-font-specification:Sans Bold" id="path3030"/>
    </g>
  </g>

	
	
	<metadata>
		<rdf:RDF xmlns:rdf="http://www.w3.org/1999/02/22-rdf-syntax-ns#" xmlns:rdfs="http://www.w3.org/2000/01/rdf-schema#" xmlns:dc="http://purl.org/dc/elements/1.1/">
			<rdf:Description about="https://iconscout.com/legal#licenses" dc:title="Americanexpress, Credit, Debit, Card, Bank, Transaction" dc:description="Americanexpress, Credit, Debit, Card, Bank, Transaction" dc:publisher="Iconscout" dc:date="2016-12-14" dc:format="image/svg+xml" dc:language="en">
				<dc:creator>
					<rdf:Bag>
						<rdf:li>Dalpat Prajapati</rdf:li>
					</rdf:Bag>
				</dc:creator>
			</rdf:Description>
		</rdf:RDF>
    </metadata></svg>
