<?xml version="1.0" ?><!DOCTYPE svg  PUBLIC '-//W3C//DTD SVG 1.1//EN'  'http://www.w3.org/Graphics/SVG/1.1/DTD/svg11.dtd'><svg height="512px" style="enable-background:new 0 0 512 512;" version="1.1" viewBox="0 0 512 512" width="512px" xml:space="preserve" xmlns="http://www.w3.org/2000/svg" xmlns:xlink="http://www.w3.org/1999/xlink"><g id="_x33_63-visa_x2C__Credit_card"><g><path d="M485.999,115.445v281.108c0,21.165-17.17,38.335-38.333,38.335H64.334    c-21.163,0-38.333-17.17-38.333-38.335V115.445c0-21.164,17.17-38.334,38.333-38.334h383.332    C468.829,77.111,485.999,94.282,485.999,115.445z" style="fill:#0353A5;"/><g><path d="M421.791,192.111h-24.837c-7.666,0-13.498,2.237-16.771,10.302l-47.678,113.8h33.702     c0,0,5.511-15.332,6.708-18.606h41.209c0.956,4.392,3.832,18.606,3.832,18.606h29.709L421.791,192.111z M382.179,272.211     c2.637-7.106,12.778-34.738,12.778-34.738c-0.16,0.239,2.636-7.268,4.233-11.9l2.235,10.702c0,0,6.07,29.708,7.428,35.937     H382.179z" style="fill:#FFFFFF;"/><path d="M164.32,192.111l-31.385,84.653l-3.435-17.171l-11.181-57.021     c-1.837-7.906-7.507-10.142-14.535-10.461H52.116l-0.56,2.476c12.618,3.195,23.879,7.827,33.701,13.656l28.591,107.813h33.94     l50.471-123.944H164.32z" style="fill:#FFFFFF;"/><polygon points="211.197,192.111 191.152,316.214 223.178,316.214 243.302,192.111    " style="fill:#FFFFFF;"/><path d="M307.989,241.865c-11.26-5.67-18.128-9.504-18.128-15.333c0.159-5.271,5.829-10.702,18.448-10.702     c10.461-0.24,18.128,2.237,23.877,4.711l2.876,1.358l4.392-26.833c-6.31-2.477-16.371-5.272-28.75-5.272     c-31.704,0-53.985,16.932-54.145,41.049c-0.24,17.809,15.971,27.713,28.11,33.701c12.379,6.068,16.611,10.063,16.611,15.413     c-0.159,8.307-10.063,12.14-19.247,12.14c-12.777,0-19.646-1.998-30.105-6.627l-4.234-1.999l-4.472,27.871     c7.505,3.435,21.402,6.47,35.777,6.631c33.701,0.078,55.663-16.614,55.902-42.328     C335.063,261.511,326.438,250.729,307.989,241.865z" style="fill:#FFFFFF;"/></g></g></g><g id="Layer_1"/></svg>